<svg width="106" height="40" viewBox="0 0 106 40" fill="none" xmlns="http://www.w3.org/2000/svg">
<path d="M54.7471 0.830078H45.9597V38.7095H54.7471V0.830078Z" fill="#CD1817"/>
<path d="M6.24196 16.5526L5.35109 19.8477H2.35938L6.2614 7.01123H10.029L14.0063 19.851H10.9012L9.9156 16.5526H6.24196ZM9.4815 14.3809L8.68538 11.6569C8.47643 10.8944 8.24966 9.92343 8.06015 9.18051H8.00346C7.83338 9.94298 7.62443 10.914 7.43654 11.6569L6.66067 14.3809H9.4815Z" fill="#121212"/>
<path d="M23.5549 14.4216H18.8576V17.4691H24.104V19.8501H15.9792V7.01123H23.8351V9.39231H18.8576V12.0593H23.5549V14.4216Z" fill="#121212"/>
<path d="M37.3534 19.2598C35.9775 19.717 34.5406 19.9612 33.0918 19.984C30.7626 19.984 29.0772 19.3934 27.902 18.2733C27.305 17.6535 26.838 16.9192 26.5288 16.1141C26.2197 15.309 26.0747 14.4496 26.1025 13.587C26.1219 9.32008 29.2084 6.88199 33.3914 6.88199C34.6003 6.84941 35.8037 7.05645 36.9331 7.49131L36.3273 9.83491C35.3968 9.42791 34.3865 9.23905 33.3728 9.28261C30.9675 9.28261 29.1298 10.6536 29.1298 13.4371C29.1298 16.1041 30.7966 17.6469 33.1639 17.6469C33.6373 17.6658 34.1107 17.6078 34.5658 17.475V14.764H32.5961V12.497H37.3502L37.3534 19.2598Z" fill="#121212"/>
<path d="M43.4993 7.01123H40.6201V19.851H43.4993V7.01123Z" fill="#121212"/>
<path d="M46.959 16.8784C47.9509 17.3873 49.0456 17.6607 50.1589 17.6775C51.4855 17.6775 52.1836 17.1252 52.1836 16.2683C52.1836 15.4871 51.577 15.0113 50.0439 14.4761C47.922 13.7145 46.5209 12.5333 46.5209 10.6475C46.5209 8.45707 48.3577 6.79935 51.351 6.79935C52.4717 6.76765 53.5851 6.9904 54.6084 7.45103L53.9605 9.77509C53.1351 9.36938 52.2276 9.16086 51.3089 9.16577C50.0585 9.16577 49.4527 9.75635 49.4527 10.404C49.4527 11.2226 50.1532 11.5851 51.8208 12.214C54.0739 13.071 55.1162 14.2505 55.1162 16.0809C55.1162 18.2331 53.4875 20.0618 49.984 20.0618C48.7336 20.0717 47.4971 19.7983 46.3662 19.2619L46.959 16.8784Z" fill="white"/>
<path d="M56.782 20.0958H60.7658V21.1963H57.9531V22.472H60.5342V23.4886H57.9531V24.9476H60.8249V26.0481H56.782V20.0958Z" fill="#666666"/>
<path d="M61.6182 20.0958H62.782L65.0051 24.0874H65.0197V20.0958H66.1163V26.0489H64.9452L62.7293 22.0639H62.7148V26.0489H61.6182V20.0958Z" fill="#666666"/>
<path d="M68.325 21.1963H66.7288V20.0958H71.0924V21.1963H69.4961V26.0489H68.325V21.1963Z" fill="#666666"/>
<path d="M71.7 20.0958H75.6838V21.1963H72.8719V22.472H75.453V23.4886H72.8719V24.9476H75.7437V26.0481H71.7008L71.7 20.0958Z" fill="#666666"/>
<path d="M76.5376 20.0959H79.4094C79.6294 20.0932 79.8477 20.1356 80.0508 20.2206C80.2399 20.3007 80.4091 20.4217 80.5465 20.5749C80.6835 20.7282 80.7899 20.9066 80.8599 21.1003C80.9331 21.3049 80.9695 21.5208 80.9676 21.7382C80.9773 22.0577 80.9068 22.3745 80.7627 22.6595C80.6205 22.9169 80.3954 23.118 80.1245 23.2297V23.2468C80.2489 23.2814 80.3642 23.3431 80.4622 23.4276C80.5602 23.5121 80.6384 23.6172 80.6915 23.7356C80.817 24.0209 80.8866 24.3279 80.8964 24.6398C80.8964 24.6618 80.8963 24.7286 80.9036 24.8402C80.9188 25.1236 80.9398 25.3653 80.9668 25.5652C80.9843 25.7353 81.0364 25.9 81.1199 26.049H79.9488C79.9011 25.9258 79.8698 25.7968 79.8557 25.6654C79.8384 25.5209 79.8222 25.3346 79.8071 25.1065C79.792 24.8953 79.7771 24.734 79.7625 24.6227C79.7502 24.3708 79.6602 24.1291 79.505 23.9311C79.4196 23.855 79.3196 23.7973 79.2113 23.7615C79.103 23.7256 78.9885 23.7124 78.8749 23.7225H77.7038V26.049H76.5327L76.5376 20.0959ZM77.7087 22.789H78.9915C79.1007 22.7974 79.2105 22.7837 79.3143 22.7485C79.4181 22.7134 79.5138 22.6576 79.5957 22.5845C79.745 22.4044 79.8175 22.1722 79.7973 21.9386C79.8069 21.826 79.794 21.7127 79.7593 21.6053C79.7247 21.4978 79.6691 21.3984 79.5957 21.313C79.5131 21.2411 79.4172 21.1864 79.3135 21.152C79.2098 21.1176 79.1004 21.1042 78.9915 21.1126H77.7087V22.789Z" fill="#666666"/>
<path d="M81.9214 20.0964H84.3235C84.6083 20.0899 84.8914 20.1423 85.1553 20.2503C85.3789 20.3439 85.5771 20.4896 85.7335 20.6755C85.8824 20.8557 85.9938 21.064 86.0615 21.2881C86.2006 21.7558 86.2006 22.2542 86.0615 22.7218C85.9939 22.946 85.8824 23.1543 85.7335 23.3344C85.5772 23.5204 85.3789 23.6662 85.1553 23.7596C84.8914 23.8677 84.6083 23.9201 84.3235 23.9136H83.0925V26.0478H81.9214V20.0964ZM83.0925 22.8978H83.9996C84.1355 22.8993 84.2712 22.8867 84.4045 22.8603C84.5199 22.8368 84.6298 22.7914 84.7284 22.7267C84.8276 22.6601 84.9053 22.5658 84.952 22.4554C85.0562 22.1646 85.0562 21.8462 84.952 21.5553C84.9046 21.4443 84.8271 21.3489 84.7284 21.28C84.631 21.2131 84.5206 21.1676 84.4045 21.1464C84.2708 21.1229 84.1353 21.1117 83.9996 21.113H83.0925V22.8978Z" fill="#666666"/>
<path d="M86.8999 20.0959H89.775C89.995 20.0932 90.2132 20.1356 90.4164 20.2206C90.6055 20.3007 90.7747 20.4217 90.9121 20.5749C91.049 20.7282 91.1555 20.9066 91.2255 21.1003C91.2986 21.3049 91.3351 21.5208 91.3332 21.7382C91.3429 22.0577 91.2725 22.3746 91.1283 22.6595C90.9863 22.9168 90.7615 23.1178 90.4909 23.2297V23.2468C90.6153 23.2814 90.7306 23.3431 90.8286 23.4276C90.9265 23.5121 91.0048 23.6172 91.0578 23.7356C91.1834 24.0209 91.2531 24.3279 91.2628 24.6398C91.2628 24.6618 91.2627 24.7286 91.27 24.8402C91.2846 25.1236 91.3057 25.3653 91.3332 25.5652C91.3507 25.7353 91.4028 25.9 91.4863 26.049H90.3152C90.2674 25.9258 90.2361 25.7968 90.222 25.6654C90.2042 25.5209 90.188 25.3346 90.1734 25.1065C90.1583 24.8953 90.1435 24.734 90.1289 24.6227C90.1166 24.3708 90.0266 24.1291 89.8714 23.9311C89.786 23.855 89.686 23.7973 89.5777 23.7615C89.4694 23.7256 89.3549 23.7124 89.2413 23.7225H88.0742V26.049H86.8999V20.0959ZM88.071 22.789H89.3539C89.4631 22.7974 89.5728 22.7837 89.6766 22.7485C89.7804 22.7134 89.8761 22.6576 89.958 22.5845C90.1074 22.4045 90.1799 22.1722 90.1597 21.9386C90.1693 21.826 90.1564 21.7127 90.1217 21.6053C90.0871 21.4978 90.0314 21.3984 89.958 21.313C89.8755 21.2411 89.7796 21.1864 89.6759 21.152C89.5722 21.1176 89.4627 21.1042 89.3539 21.1126H88.0742L88.071 22.789Z" fill="#666666"/>
<path d="M93.4553 20.0958H92.2842V26.0489H93.4553V20.0958Z" fill="#666666"/>
<path d="M95.2837 24.0721C95.2717 24.2267 95.2954 24.382 95.353 24.5259C95.4106 24.6697 95.5005 24.7982 95.6157 24.9013C95.8576 25.089 96.1576 25.1851 96.4628 25.1726C96.5792 25.1724 96.6952 25.1612 96.8095 25.1392C96.9266 25.1172 97.0398 25.0779 97.1455 25.0227C97.2495 24.9699 97.3382 24.8911 97.4031 24.7938C97.4709 24.6855 97.5047 24.5592 97.5003 24.4313C97.5042 24.3111 97.4702 24.1928 97.4031 24.0933C97.3339 23.9974 97.2449 23.9177 97.1423 23.8595C97.0286 23.7935 96.9087 23.7389 96.7843 23.6965C96.6548 23.652 96.4806 23.6021 96.262 23.5467C96.1178 23.5021 96.0034 23.4687 95.9186 23.4465C95.7082 23.3829 95.5013 23.3078 95.299 23.2216C95.123 23.1448 94.9593 23.0421 94.8131 22.917C94.6624 22.7867 94.5425 22.6242 94.4624 22.4412C94.3704 22.2241 94.3259 21.9897 94.332 21.7537C94.3268 21.483 94.3842 21.2147 94.4997 20.9701C94.606 20.7475 94.7617 20.5524 94.9548 20.3999C95.1467 20.2493 95.364 20.1348 95.5963 20.0618C95.832 19.9867 96.0779 19.9488 96.3251 19.9494C96.6012 19.9478 96.8761 19.9843 97.1423 20.0577C97.3889 20.1254 97.6196 20.2417 97.821 20.3999C98.0212 20.5604 98.181 20.766 98.2875 21.0002C98.4076 21.2728 98.4663 21.5688 98.4592 21.867H97.3254C97.3327 21.7346 97.3093 21.6023 97.2568 21.4807C97.2044 21.3591 97.1244 21.2514 97.0233 21.1664C96.8002 21.0225 96.538 20.9525 96.2733 20.966C96.0721 20.96 95.874 21.0169 95.7064 21.1289C95.6268 21.1862 95.5631 21.2629 95.5213 21.3519C95.4795 21.4408 95.461 21.5391 95.4675 21.6372C95.4629 21.734 95.4836 21.8304 95.5274 21.9166C95.5785 21.9963 95.651 22.0598 95.7364 22.0999C95.8637 22.1645 95.9958 22.219 96.1316 22.2629C96.2936 22.3172 96.5622 22.3986 96.9374 22.5072C96.9784 22.5141 97.0186 22.5253 97.0573 22.5406C97.0715 22.546 97.0866 22.5488 97.1018 22.5488C97.269 22.5935 97.4333 22.6479 97.5942 22.7117C97.7622 22.784 97.9201 22.8779 98.064 22.9911C98.2372 23.1272 98.3776 23.301 98.4746 23.4994C98.5891 23.7399 98.6446 24.0044 98.6365 24.2708C98.6456 24.5297 98.5981 24.7873 98.4975 25.0257C98.3969 25.2641 98.2456 25.4775 98.0542 25.6508C97.5956 26.0282 97.0122 26.2174 96.4207 26.1803C96.1289 26.1818 95.8384 26.1395 95.559 26.0548C95.2948 25.975 95.049 25.8432 94.8358 25.6671C94.6202 25.4865 94.4491 25.2581 94.3361 24.9999C94.2088 24.7042 94.1464 24.3844 94.1531 24.0623L95.2837 24.0721Z" fill="#666666"/>
<path d="M99.3255 20.0958H103.309V21.1963H100.497V22.472H103.078V23.4886H100.497V24.9476H103.368V26.0481H99.3247L99.3255 20.0958Z" fill="#666666"/>
</svg>
