<svg width="46" height="46" viewBox="0 0 46 46" fill="none" xmlns="http://www.w3.org/2000/svg">
<path d="M44.1631 35.3096C44.644 35.8986 44.6097 36.768 44.0605 37.3174L37.3203 44.0605C37.039 44.342 36.6567 44.5 36.2588 44.5C35.861 44.4999 35.4795 44.3419 35.1982 44.0605L17.9473 26.7998L8.92578 35.8193C8.52593 36.2191 7.93472 36.3597 7.39746 36.1836C6.86033 36.0074 6.46743 35.5441 6.38183 34.9853L1.51758 3.22754C1.44528 2.75558 1.60184 2.27707 1.93945 1.93945C2.27707 1.60184 2.75558 1.44529 3.22754 1.51758L34.9922 6.38184C35.5509 6.46754 36.0143 6.86032 36.1904 7.39746C36.3665 7.93482 36.2251 8.52598 35.8252 8.92578L26.8037 17.9443L44.0605 35.1963L44.1631 35.3096Z" fill="#FF0909" stroke="white" stroke-width="3" stroke-linejoin="round"/>
</svg>
