<svg width="24" height="24" viewBox="0 0 24 24" fill="none" xmlns="http://www.w3.org/2000/svg">
<path d="M11.4098 18.1707C9.69268 18.0813 8.2439 17.4195 7.06342 16.1854C5.88293 14.9512 5.29268 13.4667 5.29268 11.7317C5.29268 9.94309 5.9187 8.42276 7.17073 7.17073C8.42276 5.9187 9.94309 5.29268 11.7317 5.29268C13.4667 5.29268 14.9512 5.88293 16.1854 7.06342C17.4195 8.2439 18.0813 9.69268 18.1707 11.4098L15.9171 10.739C15.6846 9.77317 15.1837 8.98171 14.4146 8.36463C13.6455 7.74756 12.7512 7.43902 11.7317 7.43902C10.5512 7.43902 9.54065 7.85935 8.7 8.7C7.85935 9.54065 7.43902 10.5512 7.43902 11.7317C7.43902 12.7512 7.74756 13.6455 8.36463 14.4146C8.98171 15.1837 9.77317 15.6846 10.739 15.9171L11.4098 18.1707ZM12.6976 22.4098C12.5366 22.4455 12.3756 22.4634 12.2146 22.4634H11.7317C10.2472 22.4634 8.85203 22.1817 7.54634 21.6183C6.24065 21.0549 5.10488 20.2902 4.13902 19.3244C3.17317 18.3585 2.40854 17.2228 1.84512 15.9171C1.28171 14.6114 1 13.2163 1 11.7317C1 10.2472 1.28171 8.85203 1.84512 7.54634C2.40854 6.24065 3.17317 5.10488 4.13902 4.13902C5.10488 3.17317 6.24065 2.40854 7.54634 1.84512C8.85203 1.28171 10.2472 1 11.7317 1C13.2163 1 14.6114 1.28171 15.9171 1.84512C17.2228 2.40854 18.3585 3.17317 19.3244 4.13902C20.2902 5.10488 21.0549 6.24065 21.6183 7.54634C22.1817 8.85203 22.4634 10.2472 22.4634 11.7317V12.2146C22.4634 12.3756 22.4455 12.5366 22.4098 12.6976L20.3171 12.0537V11.7317C20.3171 9.33496 19.4854 7.30488 17.822 5.64146C16.1585 3.97805 14.1285 3.14634 11.7317 3.14634C9.33496 3.14634 7.30488 3.97805 5.64146 5.64146C3.97805 7.30488 3.14634 9.33496 3.14634 11.7317C3.14634 14.1285 3.97805 16.1585 5.64146 17.822C7.30488 19.4854 9.33496 20.3171 11.7317 20.3171H12.0537L12.6976 22.4098ZM20.8805 23L16.2927 18.4122L14.9512 22.4634L11.7317 11.7317L22.4634 14.9512L18.4122 16.2927L23 20.8805L20.8805 23Z" fill="white"/>
</svg>
