<svg width="16" height="16" viewBox="0 0 16 16" fill="none" xmlns="http://www.w3.org/2000/svg">
<path d="M13.9993 11.4467V13.804C13.9994 13.9728 13.9355 14.1353 13.8204 14.2588C13.7053 14.3823 13.5477 14.4575 13.3794 14.4693C13.0881 14.4893 12.8501 14.5 12.6661 14.5C6.77507 14.5 2 9.72467 2 3.83333C2 3.64933 2.01 3.41133 2.03066 3.12C2.04248 2.95163 2.11771 2.79401 2.24119 2.67894C2.36466 2.56387 2.52719 2.49992 2.69596 2.5H5.05316C5.13585 2.49992 5.21562 2.53057 5.27697 2.58601C5.33832 2.64145 5.37688 2.71772 5.38515 2.8C5.40048 2.95333 5.41448 3.07533 5.42781 3.168C5.56029 4.09262 5.83179 4.99189 6.2331 5.83533C6.29643 5.96867 6.2551 6.128 6.1351 6.21333L4.69652 7.24133C5.5761 9.29097 7.20941 10.9244 9.25893 11.804L10.2855 10.368C10.3275 10.3093 10.3887 10.2673 10.4585 10.2491C10.5283 10.2309 10.6023 10.2379 10.6675 10.2687C11.5108 10.6692 12.4098 10.9401 13.334 11.072C13.4267 11.0853 13.5487 11.1 13.7007 11.1147C13.7828 11.1231 13.8589 11.1617 13.9142 11.2231C13.9695 11.2844 14.0001 11.3641 14 11.4467H13.9993Z" fill="#3D73E6"/>
</svg>
