<svg width="24" height="24" viewBox="0 0 24 24" fill="none" xmlns="http://www.w3.org/2000/svg">
<path d="M4 21H20C21.1046 21 22 20.1046 22 19V8.6C22 7.49543 21.1046 6.6 20 6.6H17L14.7983 3.4296C14.6115 3.16049 14.3046 3 13.977 3H10.023C9.6954 3 9.38855 3.16049 9.20166 3.4296L7 6.6H4C2.89543 6.6 2 7.49543 2 8.6V19C2 20.1046 2.89543 21 4 21Z" stroke="#5F6470" stroke-width="1.75" stroke-linecap="round" stroke-linejoin="round"/>
<path d="M16 13.2C16 15.4091 14.2091 17.2 12 17.2C9.79086 17.2 8 15.4091 8 13.2C8 10.9909 9.79086 9.19995 12 9.19995C14.2091 9.19995 16 10.9909 16 13.2Z" stroke="#5F6470" stroke-width="1.75" stroke-linecap="round" stroke-linejoin="round"/>
</svg>
