<svg width="40" height="40" viewBox="0 0 40 40" fill="none" xmlns="http://www.w3.org/2000/svg">
<path d="M29.6293 19.4307H26.8515V16.0457C26.8515 12.5893 24.04 9.7778 20.5836 9.7778H19.4109C15.9546 9.7778 13.143 12.5893 13.143 16.0457V19.4307H10.3652V16.0457C10.3633 11.0576 14.4208 7 19.409 7H20.5816C25.5697 7 29.6273 11.0576 29.6273 16.0457V19.4307H29.6293Z" fill="#3BD789"/>
<path d="M22.7467 33.5254H19.082V30.7476H22.7467C25.0107 30.7476 26.8519 28.9063 26.8519 26.6424V21.0947H29.6297V26.6424C29.6297 30.4381 26.5424 33.5254 22.7467 33.5254Z" fill="#3BD789"/>
<path d="M30.7656 16.582C32.5517 16.5822 34 17.9851 34 19.7109V23.7734C33.9999 25.501 32.5498 26.9022 30.7656 26.9023H26.8555V16.582H30.7656ZM13.1445 26.8467H9.23438C7.44834 26.8466 6.00008 25.4435 6 23.7178V19.6553C6 17.9276 7.4502 16.5265 9.23438 16.5264H13.1445V26.8467Z" fill="#05B376"/>
</svg>
