<?xml version="1.0" encoding="utf-8"?>
<!-- Generator: Adobe Illustrator 27.8.1, SVG Export Plug-In . SVG Version: 6.00 Build 0)  -->
<svg version="1.1" id="레이어_1" xmlns="http://www.w3.org/2000/svg" xmlns:xlink="http://www.w3.org/1999/xlink" x="0px"
	 y="0px" viewBox="0 0 284 172" style="enable-background:new 0 0 284 172;" xml:space="preserve">
<style type="text/css">
	.st0{clip-path:url(#SVGID_00000166666783678847945640000010076806498058992815_);}
	.st1{fill:#F3F4F5;}
	.st2{fill:#363636;}
	.st3{fill:#FDFDFF;}
	.st4{fill:#E0E0E0;}
	.st5{fill:#BABABA;}
	.st6{fill:#EDEDED;}
	.st7{fill:#EEEAFE;}
	.st8{fill:#BFBFBF;}
	.st9{fill:#E2E2E2;}
	.st10{fill:#666666;}
	.st11{fill:#3B2B5B;}
	.st12{fill:#352E38;}
	.st13{fill:#FF97A6;}
	.st14{fill:#363D61;}
	.st15{fill:#334269;}
	.st16{fill:#FFE5B0;}
	.st17{fill:#C95D77;}
	.st18{fill:#295A6E;}
	.st19{fill:#FD9E38;}
	.st20{fill:#FFCB48;}
	.st21{fill:#205363;}
	.st22{fill:#C9C9C9;}
	.st23{fill:#828282;}
	.st24{fill:#E4DEFC;}
	.st25{fill:#FFA9BA;}
	.st26{fill:#FC9FAF;}
	.st27{fill:#C1C1C1;}
	.st28{fill:#357A5F;}
	.st29{fill:#28684C;}
	.st30{fill:#33303B;}
	.st31{fill:#FF9A2E;}
	.st32{fill:#808080;}
	.st33{fill:#FF5E4D;}
	.st34{fill:#C43B72;}
	.st35{fill:#F98A8A;}
	.st36{fill:#42425E;}
	.st37{fill:#F74D41;}
	.st38{fill:#ED3B37;}
	.st39{fill:#181C36;}
	.st40{fill:#AACBE8;}
	.st41{fill:#314363;}
	.st42{fill:#35395C;}
	.st43{fill:#8F96AD;}
	.st44{fill:#665E75;}
	.st45{opacity:0.69;}
	.st46{fill:#FFFFFF;}
	.st47{fill:#F8F7FD;}
</style>
<g>
	<defs>
		<rect id="SVGID_1_" width="283.8" height="171.5"/>
	</defs>
	<clipPath id="SVGID_00000080186258329934221040000011929315794908888251_">
		<use xlink:href="#SVGID_1_"  style="overflow:visible;"/>
	</clipPath>
	<g style="clip-path:url(#SVGID_00000080186258329934221040000011929315794908888251_);">
		<path class="st1" d="M216.9,7.3H70.3c-2.2,0-4,1.8-4,4v99.1c0,2.2,1.8,4,4,4h146.7c2.2,0,4-1.8,4-4V11.3
			C220.9,9,219.1,7.3,216.9,7.3z"/>
		<path class="st2" d="M70.3,7.3h146.7c2.2,0,4,1.8,4,4v7.5H66.2v-7.5C66.2,9,68,7.3,70.3,7.3z"/>
		<path class="st3" d="M73.6,15.4c1.3,0,2.3-1,2.3-2.3c0-1.3-1-2.3-2.3-2.3c-1.3,0-2.3,1-2.3,2.3C71.2,14.4,72.3,15.4,73.6,15.4z"/>
		<path class="st3" d="M79.6,15.4c1.3,0,2.3-1,2.3-2.3c0-1.3-1-2.3-2.3-2.3c-1.3,0-2.3,1-2.3,2.3C77.3,14.4,78.3,15.4,79.6,15.4z"/>
		<path class="st3" d="M85.6,15.4c1.3,0,2.3-1,2.3-2.3c0-1.3-1-2.3-2.3-2.3c-1.3,0-2.3,1-2.3,2.3C83.3,14.4,84.3,15.4,85.6,15.4z"/>
		<path class="st4" d="M228.1,155.9c-7.5,0-14.6-4.9-20-13.8c-5.7-9.5-17.9-8.9-18-8.9l-0.1-2.3c0.6,0,13.7-0.7,20.2,10
			c5.6,9.2,13.1,13.8,20.6,12.4c6.5-1.2,12-6.7,13.3-13.4c1.4-7.5,5.7-13.5,12.3-17.3c6.9-4,16.1-5.6,27.5-4.8l-0.2,2.3
			c-21.3-1.5-34.5,5.7-37.3,20.2c-1.5,7.7-7.7,14-15.2,15.3C230.2,155.8,229.2,155.8,228.1,155.9L228.1,155.9z"/>
		<path class="st5" d="M185.6,170.7c13.6,0,24.6-1.2,24.6-2.6c0-1.4-11-2.6-24.6-2.6c-13.6,0-24.6,1.2-24.6,2.6
			C161,169.5,172,170.7,185.6,170.7z"/>
		<path class="st6" d="M181.2,138.4l-5.6,0l0.1-12.8l5.6,0c3.4,0,6.1,2.8,6.1,6.2l0,0.5C187.3,135.7,184.6,138.4,181.2,138.4z"/>
		<path class="st7" d="M185.6,134.4l4.3-0.5l0-4.6l-4.3-0.5L185.6,134.4z"/>
		<path class="st8" d="M188.8,133.1l4.6,0l0-2.9l-4.6,0L188.8,133.1z"/>
		<path class="st8" d="M192.6,131.2l0.7,0l0-2.1l-0.7,0L192.6,131.2z"/>
		<path class="st8" d="M191.4,131.2l0.7,0l0-2.1l-0.7,0L191.4,131.2z"/>
		<path class="st8" d="M190.2,131.1l0.7,0l0-2.1l-0.7,0L190.2,131.1z"/>
		<path class="st8" d="M192.6,134.1l0.7,0l0-2.1l-0.7,0L192.6,134.1z"/>
		<path class="st8" d="M191.4,134.1l0.7,0l0-2.1l-0.7,0L191.4,134.1z"/>
		<path class="st7" d="M190.2,134.1l0.7,0l0-2.1l-0.7,0L190.2,134.1z"/>
		<path class="st9" d="M163.6,122.1l8.8,0.1c0.3,0,0.5,0.2,0.7,0.4c0.3,0.8,1.5,2.4,5.3,3.2c3.2,0.7,3.3,11.6,0.2,12.5
			c-3.6,1-4.7,3.2-5.1,4.2c-0.1,0.3-0.4,0.5-0.7,0.5l-9.6-0.1L163.6,122.1L163.6,122.1z"/>
		<path class="st2" d="M162.1,128.6l-12.2-0.1c-0.8,0-1.5-0.7-1.5-1.5c0-0.8,0.7-1.5,1.5-1.5l12.2,0.1L162.1,128.6z"/>
		<path class="st2" d="M162,138.9l-12.2-0.1c-0.8,0-1.5-0.7-1.5-1.5c0-0.8,0.7-1.5,1.5-1.5l12.2,0.1L162,138.9z"/>
		<path class="st6" d="M156.9,132.4c0-6.1,1.6-11.2,3.9-11.6l0.2,0l5.2,0c0.1,0,0.2,0,0.3,0.1c0.4,0.2,0.7,0.7,0.6,1.2
			c-0.2,1.5-1.3,5.8-1.3,9.9c0,4.3,1.1,9.4,1.2,11.1c0,0.4-0.2,0.8-0.5,1.1c-0.1,0.1-0.3,0.1-0.4,0.1l-5.2,0h-0.2
			C158.3,143.7,156.8,138.6,156.9,132.4L156.9,132.4z"/>
		<path class="st10" d="M163.2,133.4l-6.3,0c0,0-0.1-0.9-0.1-1.2c0-0.3,0.1-1.3,0.1-1.3l6.3,0c0.7,0,1.2,0.6,1.2,1.2
			C164.5,132.9,163.9,133.4,163.2,133.4L163.2,133.4z"/>
		<path class="st11" d="M182.1,128.2c0,0,2.4,8.6,2.8,9.8c0,0-1.2,3.5-1.2,4.2c0,0.6,5.2,0.8,5.2,0.8l-0.5-8.8L182.1,128.2
			L182.1,128.2z"/>
		<path class="st12" d="M172.2,166.8c0.3-0.6,1.1-0.1,1.6,0.2c-0.2,0-0.4,0-0.3,0.2c0.2,0.3,0.9,0.7,1.2,0.6c0,0.2-0.2,0.5-0.3,0.6
			C174.3,168.6,172.2,167,172.2,166.8z"/>
		<path class="st13" d="M173.6,167.2c-0.1-0.2-0.1-0.4,0.2-0.2c0.3,0.1,0.6,0.2,0.6,0.2c0.2,0,0.3-0.1,0.3-0.1l0.2,0.2
			c0,0-0.2,0.5-0.2,0.6C174.4,167.8,173.8,167.5,173.6,167.2L173.6,167.2z"/>
		<path class="st12" d="M204.1,166.8c-0.6-0.3,0.1-1.2,0.3-1.7c0,0.2,0,0.4,0.2,0.3c0.3-0.2,0.7-0.9,0.7-1.3
			c0.2,0.1,0.4,0.2,0.5,0.4C206,164.7,204.3,166.9,204.1,166.8L204.1,166.8z"/>
		<path class="st13" d="M204.6,165.4c-0.2,0.1-0.4,0.1-0.2-0.2c0.2-0.3,0.2-0.6,0.3-0.7c0-0.2-0.2-0.5-0.2-0.5l0.3-0.1
			c0,0,0.4,0.3,0.5,0.3C205.3,164.5,204.9,165.2,204.6,165.4L204.6,165.4z"/>
		<path class="st14" d="M193.4,138.4c1,1.1,1.1,4.5,1,7.5c-0.2,3.2-0.7,6-0.7,6s11.3,11.6,11.2,11.8l-0.6,1.1
			c0,0.1-10.8-5.8-13.5-9.7c-1.3-1.8-3.5-8.6-4.1-14.1c-0.2-1.8-1.2-5.9-1.2-5.9s2.7-0.9,5,0C191.7,135.6,192.9,137.8,193.4,138.4
			L193.4,138.4z"/>
		<path class="st15" d="M194.8,142.7c-1.7,4.7-9.6,9.8-9.6,9.8s-1.8,3.5-2.4,4.8c-0.8,1.5-6,8.7-7,10.1c-0.1,0.1-0.2,0.1-0.4,0.1
			l-0.7-0.5c-0.1,0-0.1-0.1-0.1-0.1c-0.6-1.2,5-12,7.1-16.7c0.7-1.7,6.2-11.1,6.2-11.1s-0.1-1.3-0.8-4.1c0.8-0.1,3-3.2,5.2-1.1
			C194.7,136.3,196.5,138.1,194.8,142.7L194.8,142.7z"/>
		<path class="st16" d="M183,129.7c-1.6-4,0.3-3.9,0.5-4c1.1-0.8,2.6-0.2,3.5,0.3c2.4,1.2,4.9,7.1,5.2,8c-1.5,1.2-5.6,2.1-6.6,1.9
			c0-0.1,0-0.4-0.5-1.7C184.1,131.7,183.7,131.6,183,129.7z"/>
		<path class="st11" d="M176.4,123.1c-1.5-1.2,0.1-1.1,2.1-0.6c0.8,0.2,2.5,0.5,4,1c1.2,0.4,3.9,2,3.9,2l-2.2,0.8
			C184.1,126.3,179.6,125.6,176.4,123.1L176.4,123.1z"/>
		<path class="st11" d="M171.5,121.1c1.7,0.3,4,0.7,5.2,1c3.1,0.7,2,2.2,0.5,2.6c-3.2,0.8-6-0.1-6.8-0.5c-0.8-0.3-1.4-2.5-1.4-2.5
			S170,120.9,171.5,121.1z"/>
		<path class="st13" d="M169.2,122.1c0,0-0.4-0.4-0.7-0.4c-0.3,0-0.8,0.3-0.9,0.3c-0.1,0.1,0.4-0.1,0.4-0.1s-0.6,0.2-0.6,0.4
			c0,0.1,0.2,0,0.2,0s-0.1,0-0.1,0.1c0,0.1,0.5,0,0.6,0c0.1,0,0.6,0.1,0.9,0.1C169.2,122.5,169.3,122.4,169.2,122.1L169.2,122.1z"/>
		<path class="st13" d="M173.9,142.5c0,0-0.5,0.8-0.9,0.8c-0.4,0-0.9,0-0.9-0.3c0-0.2,0.6-0.3,0.8-0.4c0.4-0.2,0.6-0.6,1-0.7
			C173.9,142,174,142.3,173.9,142.5L173.9,142.5z"/>
		<path class="st12" d="M182.7,138.4c-2.2,1.5-2.7-1.6-2.7-1.6l7.1-7.8c0.3-0.4,0.8-0.5,1.3-0.4c0.9,0.2,1.4,1.2,1,2.1
			C188.1,133,185.1,136.8,182.7,138.4z"/>
		<path class="st12" d="M183.8,136.7c-1.6,2.9-6.9,8-9.3,6.8c-0.9-0.4-1-1.7-1-1.7l7.3-5.6C180.8,136.2,185.4,133.7,183.8,136.7
			L183.8,136.7z"/>
		<path class="st12" d="M182.9,126.2c0.6-1.1,2.7-1.2,3.7-0.6c3.8,2.2,5.6,8.2,5.6,8.2l1.5,1.7c2.1,2.2,2.1,4.8,2.1,4.8
			c-2.3,2.1-7.4,1.6-7.6,1.5c-0.2-0.1-0.2-3.7-0.2-3.7s-2.9-4.3-3.4-5.9c-0.4-1.6,0.2-3.8,0.2-3.8
			C183.9,126.4,182.9,126.2,182.9,126.2z"/>
		<path class="st11" d="M183.3,126.4c0,0-1.1,1-0.3,3.2c0,0-1.6-2.2-1.3-3.6C181.9,124.6,183.3,126.4,183.3,126.4L183.3,126.4z"/>
		<path class="st11" d="M183.4,126c0,0,0.8-0.2,1.4,0.8c0.6,1,0.1,1.8-0.2,2.8c0,0,0-1.5-0.2-1.9C184.3,127.2,183.4,126,183.4,126z"
			/>
		<path class="st13" d="M183,125.3c0,0,1.1,1.7,1.1,1.9c0,0.2-0.2,0.7-0.7,0.4c-0.4-0.3-1.1-2-1.1-2L183,125.3L183,125.3z"/>
		<path class="st17" d="M183.7,126.3c0,0.3-0.2,0.7-0.6,0.7c-0.2-0.3-0.3-0.7-0.5-1l0.7-0.3C183.4,125.9,183.5,126,183.7,126.3
			L183.7,126.3z"/>
		<path class="st13" d="M181.1,126.2c-0.1-0.1-0.2-0.6-0.3-1c-0.1-0.6,0.2-1.2,0.9-1.3c0.2,0,1.1-0.1,1.4,0c0.4,0.1,0.5,0.6,0.5,0.9
			c0.1,0.3,0.1,1,0,1.3c-0.1,0.3-0.6,0.6-0.9,0.7C181.7,127,181.4,126.8,181.1,126.2L181.1,126.2z"/>
		<path class="st13" d="M168.9,122.3c0,0-0.9,0.3-0.7,0.4c0.2,0.1,0.9-0.2,0.9-0.2L168.9,122.3L168.9,122.3z"/>
		<path class="st13" d="M173.3,142.7c0,0-1.1,0-1-0.2c0.1-0.2,1.2-0.3,1.2-0.3L173.3,142.7z"/>
		<path class="st18" d="M179.8,124.1c0,0,0.3,0.9,1.4,0.8s1.7-0.1,1.7-0.1l0.7,1.4c0,0,0.9-0.7,0.6-1.7
			C183.9,123.4,179.8,124.1,179.8,124.1L179.8,124.1z"/>
		<path class="st19" d="M181.4,124.1l-0.1,0.2c0,0.1,0,0.1,0.1,0.2c0.1,0,0.1,0,0.2-0.1l0.1-0.2L181.4,124.1z M181.4,124.4
			C181.4,124.4,181.3,124.4,181.4,124.4C181.4,124.3,181.4,124.3,181.4,124.4C181.4,124.3,181.5,124.4,181.4,124.4
			C181.4,124.4,181.4,124.4,181.4,124.4z"/>
		<path class="st11" d="M183,124.6l0.2,0.5c0,0,0,0.1,0.1,0.1l0.7,0.2v0.1c0,0,0.3-0.1,0.4-0.3C184.4,125,183,124.6,183,124.6
			L183,124.6z"/>
		<path class="st20" d="M179.1,124c0,0-0.3,0.2,1.4,0.3c0.1,0,0.2,0,0.4,0c0.3,0,1.1-0.1,1.6,0.1c0.7,0.3,0.5,0.5,1.1,0.7
			c0.5,0.2,1,0.2,1.1,0.1c0,0,0,0-0.1-0.1l0.1-0.6l-0.1-0.1c0,0,0.4-2-1.3-2.6c-1.7-0.6-2.3,0.3-2.6,0.7c-0.2,0.3-0.4,0.7-0.6,1
			c-0.1,0.1-0.2,0.2-0.4,0.3C179.5,123.8,179.2,123.9,179.1,124L179.1,124z"/>
		<path class="st19" d="M184.6,124.5c0,0-0.6,0.1-1.6-0.5c-1-0.5-1.3-0.3-1.8-0.4c-0.5-0.1-0.8-0.1-0.8-0.1s-0.3,0.3-0.4,0.4
			c0,0,0.3,0.3,1.3,0.3c1,0,1.2,0.1,1.6,0.3c0.3,0.2,0.4,0.5,0.8,0.6c0.3,0.1,0.9,0.2,0.9,0.1C184.5,125.1,184.6,124.6,184.6,124.5z
			"/>
		<path class="st20" d="M180.4,124.1l0.1-0.3c0,0,0.1-0.1,0.1,0l0.2,0c0,0,0.1,0.1,0.1,0.1l-0.1,0.3
			C180.9,124.1,180.6,124.2,180.4,124.1z"/>
		<path class="st19" d="M181.4,122.1c0.3-0.2,0.6-0.2,0.9-0.3c0.2,0,0.3,0,0.5,0c0.2,0,0.3,0.1,0.5,0.1c0.1,0.1,0.3,0.1,0.4,0.2
			c0.1,0.1,0.3,0.2,0.4,0.3c0.2,0.2,0.4,0.5,0.4,0.8c-0.1-0.3-0.3-0.5-0.5-0.7c-0.2-0.2-0.5-0.3-0.8-0.4c-0.1-0.1-0.3-0.1-0.4-0.1
			c-0.1,0-0.3,0-0.4,0C182,121.9,181.7,122,181.4,122.1L181.4,122.1z"/>
		<path class="st4" d="M41.3,165.8c-2.1,0-4.4-0.4-6.7-1.3c-4-1.7-11.1-6.5-12.6-20.1C20.4,129.1,0.3,130,0.1,130L0,127.7
			c0.2,0,5.6-0.3,11.3,1.6c7.8,2.5,12.3,7.6,13.1,14.9c1.3,11.8,6.8,16.4,11.1,18.2c5.1,2.1,10.3,1.1,12.9-1c3.8-3,4.6-8.1,5.1-11.1
			c0.1-0.6,0.2-1.1,0.3-1.5c2.5-11.9,9.6-10.7,17-9.3c6,1.1,12.7,2.3,19.7-1.9l1.2,2c-7.7,4.6-15.2,3.3-21.3,2.2
			c-7.7-1.4-12.3-2.2-14.3,7.5c-0.1,0.4-0.2,0.8-0.2,1.4c-0.5,3.1-1.4,8.9-5.9,12.5C48,164.8,44.9,165.8,41.3,165.8L41.3,165.8z"/>
		<path class="st5" d="M97.3,171.5c9.4,0,17.1-1.2,17.1-2.6c0-1.4-7.7-2.6-17.1-2.6c-9.4,0-17.1,1.2-17.1,2.6
			C80.2,170.4,87.9,171.5,97.3,171.5z"/>
		<path class="st21" d="M90.6,131.6c0.5,0.5,2.4,1.3,4.3,0.7c1.7-0.6,4.9-1.7,4.9-2.7c-0.1-0.8-1.5-1.8-1.5-1.8s-2.4,1.3-3.6,1.8
			C93.7,129.9,90.2,131.2,90.6,131.6z"/>
		<path class="st21" d="M97.7,130.9c1.3,0,6.2-3.4,5.2-5.6c-0.3-0.7-1.4-0.7-1.4-0.7l-5,4.7C96.5,129.4,96.2,131,97.7,130.9z"/>
		<path class="st6" d="M106.5,138.8l-5.1,2.4c-3,1.4-6.6,0.1-8.1-2.9c-1.4-3-0.1-6.6,2.9-8.1l5.1-2.4L106.5,138.8z"/>
		<path class="st9" d="M108.6,120.7l-5.3,2.5c-0.5,0.2-0.8,0.7-0.9,1.3c-0.1,0.9-0.8,2.6-3.4,4.6c-2.6,1.9,1.7,11.4,4.8,10.8
			c3.1-0.6,5,0.4,5.9,1.2c0.5,0.4,1.2,0.5,1.7,0.2l5.9-2.8L108.6,120.7L108.6,120.7z"/>
		<path class="st8" d="M95.8,139.6l-4,1.4l-1.9-3.9l3.7-2.2L95.8,139.6z"/>
		<path class="st8" d="M91.1,137.4l-4.1,2l1.2,2.5l4.1-2L91.1,137.4z"/>
		<path class="st8" d="M87.3,138l-0.6,0.3l0.8,1.8l0.6-0.3L87.3,138z"/>
		<path class="st8" d="M88.4,137.5l-0.6,0.3l0.8,1.8l0.6-0.3L88.4,137.5z"/>
		<path class="st8" d="M89.5,137l-0.6,0.3l0.8,1.8l0.6-0.3L89.5,137z"/>
		<path class="st8" d="M88.4,140.5l-0.6,0.3l0.8,1.8l0.6-0.3L88.4,140.5z"/>
		<path class="st8" d="M89.5,140l-0.6,0.3l0.8,1.8l0.6-0.3L89.5,140z"/>
		<path class="st8" d="M90.6,139.5l-0.6,0.3l0.8,1.8l0.6-0.3L90.6,139.5z"/>
		<path class="st6" d="M118.5,139.9c-2.2,1-6.2-2.9-9-8.7c-2.8-5.8-3.2-11.4-1-12.5l4.7-2.2l10,21.2L118.5,139.9"/>
		<path class="st22" d="M123.2,137.7c2.2-1,1.7-6.6-1-12.5c-2.8-5.8-6.8-9.7-9-8.7c-2.2,1-1.7,6.6,1,12.5
			C116.9,134.8,121,138.7,123.2,137.7z"/>
		<path class="st23" d="M117.3,127.3c0.5,1.1,0.5,2.2,0,2.4c-0.5,0.2-1.3-0.5-1.8-1.5c-0.5-1.1-0.5-2.2,0-2.4
			C115.9,125.6,116.7,126.3,117.3,127.3z"/>
		<path class="st23" d="M121,125.8c0.5,1.1,0.5,2.2,0,2.4c-0.5,0.2-1.3-0.5-1.8-1.5c-0.5-1.1-0.5-2.2,0-2.4
			C119.6,124,120.4,124.7,121,125.8z"/>
		<path class="st11" d="M94.5,127.5c0,0,0.2-0.6-1-0.3c-0.8,0.2,0.3,1.9-2.3,2.2c-1.2,0.2-2.7,0.6-2.5,4.2c0,0,0,1.6-1.3,1.7
			c0,0,1,3.1,5.6,1.8c2.2-0.7,4.3-3.5,4.5-5.5c0.1-0.8-0.3-2.2-0.7-2.7C96.3,128.5,94.5,127.5,94.5,127.5z"/>
		<path class="st11" d="M94.1,128c0,0,0.5-1.2,1.3-0.9c0.8,0.3,1.5,1.5,0.8,3.5C95.5,132.7,94.1,128,94.1,128z"/>
		<path class="st13" d="M91.8,141.7c-1.8,1.9,0.3,11.3,0.3,11.3s-4,13.9-3.9,14.1l0.1,0.2c0,0.1,5.5-8.2,7.5-12.4
			c0.8-1.6,3-6.8,2.7-11.1c-0.1-1.7-0.9-5.7-0.9-5.7s-1.5,0-3.2,1.2C93.4,140.2,92.3,141.2,91.8,141.7L91.8,141.7z"/>
		<path class="st12" d="M88.8,169.4c0.3-0.1,0-0.9-0.2-1.3c0,0.1,0,0.3-0.2,0.2c-0.2-0.2-0.5-0.8-0.5-1c-0.2,0-0.4,0.2-0.5,0.2
			C87.3,167.6,88.6,169.4,88.8,169.4z"/>
		<path class="st13" d="M88.4,168.2c0.2,0.1,0.3,0.1,0.2-0.2c-0.1-0.2-0.2-0.5-0.2-0.5c0-0.1,0.1-0.3,0.1-0.3l-0.1-0.2
			c0,0-0.4,0.2-0.4,0.2C87.9,167.5,88.2,168,88.4,168.2L88.4,168.2z"/>
		<path class="st12" d="M105.8,169.4c-0.1-0.3-0.9-0.2-1.4-0.2c0.1,0,0.3,0.1,0.2,0.2c-0.2,0.2-0.9,0.3-1.1,0.2
			c0,0.2,0.1,0.4,0.1,0.5C103.6,170.3,105.8,169.5,105.8,169.4L105.8,169.4z"/>
		<path class="st13" d="M104.6,169.4c0.2-0.1,0.2-0.3-0.1-0.2c-0.3,0.1-0.5,0-0.6,0c-0.1,0-0.3-0.2-0.3-0.2l-0.2,0.1
			c0,0,0.1,0.4,0.1,0.5C103.7,169.7,104.3,169.6,104.6,169.4L104.6,169.4z"/>
		<path class="st13" d="M91.3,145.8c0.7,3.5,7.3,7.5,7.3,7.5s4.6,16,4.8,16l0.2-0.1c0.1,0-0.3-14-1.3-18c-0.4-1.4-5-8.6-5-8.6
			s0-4-0.3-4.4c-0.7,0-2,1.5-4,1.2C92.7,139.4,90.6,142,91.3,145.8z"/>
		<path class="st12" d="M97.7,138.1c0,0,1.2,6,1.1,8.3c-0.2,2.2-0.1,6.7-0.1,6.7s-3.3,0.4-6.4,0c0,0-1.6-5.9-0.9-8.4
			c0.7-2.5,5.3-5.8,5.3-5.8L97.7,138.1z"/>
		<path class="st11" d="M92,140.6c0,0-2.9,3.9,0.8,7.8c3.7,3.9,5.9,4.9,5.9,4.9l3.9-2.3c0,0-2.7-4.8-3.7-6.3
			c-0.4-0.6-1.5-2.2-1.5-2.2s0-3.8-0.1-4.2C97.1,137.9,92,140.6,92,140.6L92,140.6z"/>
		<path class="st24" d="M92.5,131.2c0.9-0.4,2.1-0.4,2.3-0.4c1-0.1,2.3,1.5,2.8,3.2c0.4,1.5,0.4,5.6,0.4,5.6s-0.4,0.4-2.3,0.5
			c-2.8,0.1-3.2-0.4-3.2-0.4s-0.3-1-0.5-2.7c-0.1-0.9-0.4-1.7-0.7-3.3C91.2,133.3,91.5,131.6,92.5,131.2L92.5,131.2z"/>
		<path class="st21" d="M94.2,130.8c0,0,2.5,1.6,3.1,5.1c0.2,1.2,0.3,1.9,0.3,2.4c0.1,0.8,0.8,4.7,0.9,5.4c0,0,0.4-0.1,0.8-0.7
			c0.4-0.5-1.1-4.3-1.1-4.3s-0.2-5.1-0.7-6.1C97.2,131.6,95.4,130.5,94.2,130.8L94.2,130.8z"/>
		<path class="st25" d="M105.2,139.8c0,0.1,0,0.1,0.1,0.2c0.1,0.1,0.5,0.2,0.8,0.3c0,0,0.4,0.2,0.6,0c0,0,0-0.1-0.1-0.1
			c0,0,0.4-0.1,0.5-0.2c0-0.1-0.5-0.1-0.5-0.1s-0.6-0.2-0.6-0.4c0,0,0.3,0,0.2-0.1c0-0.1-0.5-0.1-0.7,0.1c0,0-0.2,0.1-0.3,0.1
			C105.2,139.5,105.2,139.6,105.2,139.8L105.2,139.8z"/>
		<path class="st18" d="M96.9,138.5c0.4,1.5,6.5,3.4,8,1.8c0.6-0.6,0.4-1.1,0.4-1.1l-7.4-2.4C97.9,136.8,96.5,136.8,96.9,138.5
			L96.9,138.5z"/>
		<path class="st13" d="M102,124.7c0,0,0-0.7,0.3-0.9c0.3-0.2,0.7-0.3,0.8-0.1c0.1,0.1-0.3,0.1-0.3,0.1s0.4,0.1,0.4,0.2
			c0,0.1-0.2,0.1-0.2,0.1s0.2,0,0.2,0.1c0,0.1-0.3,0.1-0.4,0.1c-0.1,0.1-0.2,0.6-0.5,0.7C102.2,125.1,102,125,102,124.7L102,124.7z"
			/>
		<path class="st13" d="M93.7,128.9c0,0-0.3,1.9-0.2,2.1c0.1,0.2,0.4,0.5,0.7,0.1c0.2-0.5,0.1-2.2,0.1-2.2L93.7,128.9z"/>
		<path class="st17" d="M93.7,128.3c0,0-0.2,1.6-0.2,1.8c0,0.2,0.7,0.7,0.7,0.4c0.1-0.5,0-2.2,0-2.2L93.7,128.3L93.7,128.3z"/>
		<path class="st26" d="M95.3,129c0-0.2-0.2-0.6-0.4-1c-0.2-0.3-0.6-0.5-0.9-0.3c-0.5,0.3-1,0.6-1.1,0.7c-0.2,0.3,0,0.6,0.1,0.9
			c0.1,0.3,0.4,0.7,0.6,0.8c0.2,0.1,0.7,0.1,1,0C95.3,129.8,95.4,129.6,95.3,129L95.3,129z"/>
		<path class="st18" d="M93.5,130.9c0,0,1.3,0.4,2.3,2.7c0.9,2.3,0.3,6.5,0.3,6.5s-1.9,4.2-2.5,4.3c-0.6,0.1-3.2-0.7-3.2-0.7
			s0.5-2.2,2-4.3c0,0-0.1-1.8-1-4.5C90.5,132.2,92.5,130.8,93.5,130.9z"/>
		<path class="st18" d="M92.3,132c-0.5,0.5-0.5,2.5,0.9,4c1.2,1.3,3.7,3.7,5.9,3.8c1.6,0.1-0.4-2.5-0.4-2.5s-2.4-1.8-3-2.6
			C95,133.8,93.2,131.1,92.3,132L92.3,132z"/>
		<path class="st11" d="M94.4,127.4c0,0,0.4,2.4-1.1,2.9c-1.4,0.6-0.9-2.2-0.9-2.2L94.4,127.4z"/>
		<path class="st19" d="M93.9,127.7l0.1,0.1c0,0,0.1,0,0.1,0c0,0,0-0.1,0-0.1l-0.1-0.1L93.9,127.7z M94.1,127.8
			C94.1,127.8,94,127.8,94.1,127.8C94.1,127.8,94.1,127.8,94.1,127.8C94.1,127.8,94.1,127.8,94.1,127.8
			C94.1,127.9,94.1,127.9,94.1,127.8z"/>
		<path class="st18" d="M93.1,128.5l0.1,0.4c0,0,0,0.1,0,0.1l-0.4,0.4l0,0.1c0,0-0.3,0-0.4-0.1C92.3,129.4,93.1,128.5,93.1,128.5
			L93.1,128.5z"/>
		<path class="st20" d="M95.5,126.7c0,0,0.3,0.1-0.9,0.7c-0.1,0.1-0.2,0.1-0.2,0.1c-0.2,0.1-0.8,0.3-1.1,0.7
			c-0.4,0.5-0.2,0.5-0.5,0.9c-0.3,0.3-0.6,0.5-0.7,0.5c0,0,0,0,0-0.1l-0.3-0.4l0-0.1c0,0-1-1.2-0.1-2.3c1-1,1.7-0.7,2-0.5
			c0.2,0.1,0.6,0.3,0.8,0.5c0.1,0.1,0.2,0.1,0.3,0C95.2,126.7,95.4,126.7,95.5,126.7L95.5,126.7z"/>
		<path class="st19" d="M91.9,129.1c0,0,0.4-0.2,0.9-0.9c0.5-0.7,0.8-0.7,1.1-1c0.3-0.3,0.5-0.4,0.5-0.4s0.4,0.1,0.4,0.1
			c0,0-0.1,0.3-0.8,0.7c-0.7,0.3-0.8,0.5-1,0.8c-0.2,0.3-0.1,0.5-0.3,0.7c-0.2,0.2-0.5,0.5-0.6,0.4
			C92.2,129.5,91.9,129.2,91.9,129.1z"/>
		<path class="st20" d="M94.6,127.2l-0.2-0.2c0,0-0.1,0-0.1,0l-0.1,0.1c0,0,0,0.1,0,0.1l0.2,0.2C94.4,127.4,94.5,127.4,94.6,127.2
			L94.6,127.2z"/>
		<path class="st19" d="M93.2,126.2c-0.2,0-0.5,0-0.7,0.1c-0.1,0-0.2,0.1-0.3,0.2c-0.1,0.1-0.2,0.2-0.3,0.3
			c-0.1,0.1-0.2,0.2-0.2,0.3c-0.1,0.1-0.1,0.2-0.2,0.3c-0.1,0.2-0.1,0.5,0,0.7c0-0.2,0-0.5,0.1-0.7c0.1-0.2,0.2-0.4,0.4-0.6
			c0.1-0.1,0.2-0.2,0.2-0.2c0.1-0.1,0.2-0.1,0.3-0.2C92.8,126.3,93,126.3,93.2,126.2L93.2,126.2z"/>
		<path class="st11" d="M93.5,130.2c0,0,0.9,1.5-0.7,2.3c-1.6,0.8-1.7,2.8-1.7,2.8l-1-3.2L93.5,130.2z"/>
		<path class="st27" d="M91.2,129.4c-0.2,0.1-0.5,0.1-0.7,0.2c-0.2,0.1-0.4,0.2-0.6,0.3c-0.4,0.2-0.6,0.6-0.8,1
			c-0.2,0.4-0.3,0.9-0.3,1.3c0,0.5,0,0.9,0,1.4v0c0,0.2-0.1,0.4-0.1,0.6c-0.1,0.2-0.1,0.4-0.3,0.6c-0.1,0.2-0.3,0.3-0.5,0.4
			c-0.2,0.1-0.4,0.1-0.6,0.1c0.2,0,0.4-0.1,0.5-0.2c0.2-0.1,0.3-0.3,0.4-0.4c0.2-0.3,0.3-0.7,0.3-1.1v0c0-0.2,0-0.5,0-0.7
			c0-0.2,0-0.5,0-0.7c0-0.5,0.1-0.9,0.3-1.4c0.2-0.4,0.5-0.8,0.9-1.1C90.3,129.5,90.8,129.4,91.2,129.4L91.2,129.4z"/>
		<path class="st21" d="M92.2,134.3c0.2,0.5,0.4,0.9,0.7,1.3c0.3,0.4,0.6,0.8,0.9,1.1c0.3,0.4,0.7,0.7,1.1,1
			c0.4,0.3,0.8,0.6,1.2,0.9c-0.2-0.1-0.5-0.2-0.7-0.3c-0.2-0.1-0.4-0.3-0.6-0.4c-0.4-0.3-0.8-0.6-1.2-1c-0.3-0.4-0.7-0.8-0.9-1.2
			C92.4,135.3,92.2,134.8,92.2,134.3L92.2,134.3z"/>
		<path class="st21" d="M93.2,132.6c0.6,0.3,1.1,0.7,1.6,1.1c0.5,0.4,0.9,0.9,1.3,1.5c-0.5-0.4-1-0.9-1.4-1.3
			C94.2,133.5,93.7,133.1,93.2,132.6L93.2,132.6z"/>
		<path class="st7" d="M49,118.6c8.4,0,15.1-1,15.1-2.3c0-1.3-6.8-2.3-15.1-2.3c-8.4,0-15.1,1-15.1,2.3
			C33.8,117.6,40.6,118.6,49,118.6z"/>
		<path class="st11" d="M58,114.9c0.1-0.8-1-0.6-1.6-0.7c0.2,0.1,0.4,0.3,0.1,0.4c-0.4,0.1-1.4,0-1.7-0.3c-0.1,0.2-0.1,0.6-0.1,0.8
			C54.8,115.4,57.9,115.5,58,114.9L58,114.9z"/>
		<path class="st13" d="M56.5,114.6c0.3-0.1,0.1-0.3-0.1-0.4c-0.4-0.1-0.7-0.2-0.8-0.2c-0.2-0.1-0.2-0.2-0.2-0.2l-0.2,0
			c0,0-0.3,0.5-0.3,0.6C55.2,114.6,56.1,114.7,56.5,114.6z"/>
		<path class="st11" d="M40.5,114.8c-0.1-0.8,1-0.6,1.6-0.7c-0.2,0.1-0.4,0.3-0.1,0.4c0.4,0.1,1.4,0,1.7-0.3
			c0.1,0.2,0.1,0.6,0.1,0.8C43.7,115.2,40.6,115.3,40.5,114.8L40.5,114.8z"/>
		<path class="st13" d="M42,114.4c-0.3-0.1-0.1-0.3,0.1-0.4c0.4-0.1,0.7-0.2,0.8-0.2c0.2-0.1,0.2-0.3,0.2-0.3l0.2,0
			c0,0,0.3,0.5,0.3,0.6C43.4,114.5,42.4,114.6,42,114.4z"/>
		<path class="st14" d="M53.3,78.4c0,0.1,1.3,1.9,2.1,4.3c1.4,3.8,0.6,26.9,0.1,30.9c-0.1,0.5-1.4,0-1.4-0.7c-0.2-4.3-5-25.8-5-25.8
			l-5.7,26.7h-1.3c0,0-0.9-25.7,2-36.4C45.4,77.1,51.4,78.2,53.3,78.4L53.3,78.4z"/>
		<path class="st15" d="M53.7,77.6c0,0.1,1.3,2.8,2.1,5.3c1.3,4.4,0.3,26.6-0.2,30.7c0,0.3-0.4,0.3-0.8,0.1
			c-0.2-0.1,0.6-8.2-1.4-17.9c-0.8-3.7-1.9-7.9-2.6-10.8c-1-4-2.5-6.6-1.9-6.6C50.6,78.5,52.8,77.6,53.7,77.6z"/>
		<path class="st28" d="M43.8,67.7c0.8-0.9,3.4-2.1,8.4-1.7c0.5,0,1.1,0.5,1.6,0.7c-0.1,1.7,0.7,3.4,0.7,3.4
			c-0.4,1.1-0.5,2.4-0.6,3.5c-0.1,1.4,0,4.5,0,4.5S50.6,78.8,49,79c-1.3,0.1-5-0.4-5.2-1.2c-0.3-1.6-0.2-3.3-0.1-5.6
			C43.8,69.6,43.8,67.7,43.8,67.7L43.8,67.7z"/>
		<path class="st29" d="M49.1,66c0,0,0.7,0,1,0c0.6,0,1.3,0,2.1,0c0.5,0,1.7,0.7,2.3,1.9c-0.1,1.7,0,2.2,0,2.2
			c-0.4,1.1-0.5,2.4-0.6,3.5c-0.1,1.4,0,4.5,0,4.5s-2,0.6-2.7,0.8C50.7,79,48.8,79,48.8,79s0.1-0.9-0.3-4.2
			C48.1,71.2,49.1,66,49.1,66z"/>
		<path class="st13" d="M49.6,64.6c0,0,0.3,1.8,0.2,2c-0.2,0.2-0.9,0.4-1.2,0s0-2,0-2L49.6,64.6z"/>
		<path class="st17" d="M49.8,65.9c-0.4,0.1-1-0.1-1.4-0.5c0-0.3,0-0.1,0.1-0.4l1.1-0.5C49.6,64.7,49.8,65.6,49.8,65.9z"/>
		<path class="st11" d="M48.5,67.1l0.3,0.6l0.3,0l0.5-0.6C49.6,67,49,66.6,48.5,67.1z"/>
		<path class="st11" d="M49.1,67.4c0,0,1.1,4.3,1.3,5.8c0.3,1.5,0,1.9,0,1.9l-1.2,0.8l-1.2-0.9c0,0,0.4-6.9,0.8-7.5
			C49.3,66.7,49.1,67.3,49.1,67.4L49.1,67.4z"/>
		<path class="st29" d="M48.4,65.8c0,0-0.1,0.4,0.7,1l-0.5,0.8C48.5,67.6,47.8,67,48.4,65.8L48.4,65.8z"/>
		<path class="st28" d="M49.8,65.8c0,0,0,0.2-0.8,1.1l0.5,0.7C49.5,67.5,50.6,66.9,49.8,65.8L49.8,65.8z"/>
		<path class="st13" d="M47.9,64.2c-0.1-0.2,0-0.9,0-1.2c0-0.1,0.1-0.3,0.2-0.3c0.6-0.4,1.8-0.2,2.1,0c0.3,0.2,0.3,0.6,0.3,0.9
			c0,0.3-0.3,1.9-1.3,1.8C48.1,65.2,48.1,64.8,47.9,64.2z"/>
		<path class="st28" d="M41.8,79.1c0.1-1-0.4-6.4-0.4-6.4s-1.8-1.3-2.2-0.4c-0.4,1.1-0.7,2.6-1.1,4.3c-0.4,1.6,1.3,4.2,1.3,4.2
			S41.8,80.1,41.8,79.1z"/>
		<path class="st28" d="M41.4,73.6c0,0,0.6-0.9,1.6-2c0.6-0.7,1.4-1.1,2.9-2.8c0.5-0.5,1.4-2.4-0.3-2.1c-2.1,0.4-5.4,4.1-6.1,5.4
			C38.5,74,41.4,73.6,41.4,73.6L41.4,73.6z"/>
		<path class="st12" d="M49.7,103.9h-1.8c-0.2,0-0.3-0.1-0.3-0.2l-0.8-3.4c0-0.1,0-0.2,0.1-0.3c0.1-0.1,0.2-0.1,0.3-0.1l3.5,0
			c0.1,0,0.2,0,0.3,0.1c0.1,0.1,0.1,0.2,0.1,0.3l-0.8,3.4C50,103.8,49.9,103.9,49.7,103.9L49.7,103.9z M48.2,103.2h1.3l0.7-2.7
			l-2.7,0L48.2,103.2z"/>
		<path class="st12" d="M49.9,95.7h-2.1v3h2.1V95.7z"/>
		<path class="st11" d="M49.9,94.4h0.7v2c0,0.4-0.3,0.7-0.7,0.7h-0.1V94.4z"/>
		<path class="st11" d="M47,94.3h0.7V97h-0.1c-0.4,0-0.7-0.3-0.7-0.7V94.3z"/>
		<path class="st20" d="M50.6,87.6H47v7.8h3.6V87.6z"/>
		<path class="st20" d="M50.8,86.5h-3.9l-0.8-2h5.6L50.8,86.5z"/>
		<path class="st20" d="M52.7,80.5l-7.7,0l0.6-3.4c0-0.5,0.4-1,0.9-1h4.9c0.5,0,0.9,0.4,0.9,1L52.7,80.5L52.7,80.5z"/>
		<path class="st12" d="M39.1,80.5h4.2v1.7h-4.2c-0.4,0-0.8-0.4-0.8-0.8v-0.2C38.3,80.9,38.7,80.5,39.1,80.5z"/>
		<path class="st11" d="M43.3,80.4h0.4v3h-0.4c-0.3,0-0.5-0.2-0.5-0.5V81C42.7,80.7,43,80.4,43.3,80.4L43.3,80.4z"/>
		<path class="st30" d="M44.8,84.1l-1-0.5c-0.1,0-0.1-0.1-0.1-0.2v-3H45v3.5C45,84.1,44.9,84.2,44.8,84.1z"/>
		<path class="st12" d="M58.4,82.3h-4.2v-1.7h4.2c0.4,0,0.8,0.4,0.8,0.8v0.2C59.2,82,58.8,82.3,58.4,82.3z"/>
		<path class="st11" d="M54.2,83.5h-0.4v-3h0.4c0.3,0,0.5,0.2,0.5,0.5v1.9C54.8,83.2,54.5,83.5,54.2,83.5L54.2,83.5z"/>
		<path class="st27" d="M52.7,84.1l1-0.5c0.1,0,0.1-0.1,0.1-0.2v-3h-1.5V84C52.5,84.1,52.6,84.2,52.7,84.1z"/>
		<path class="st31" d="M45,80.4h7.7v4c0,0.5-0.4,0.8-0.8,0.8h-6c-0.5,0-0.8-0.4-0.8-0.8V80.4z"/>
		<path class="st31" d="M46.7,86.2h4.2v1.5c0,0.3-0.3,0.6-0.6,0.6h-3c-0.3,0-0.6-0.3-0.6-0.6L46.7,86.2L46.7,86.2z"/>
		<path class="st27" d="M50.6,95.4H47v0.5h3.6V95.4z"/>
		<path class="st11" d="M49.7,101H48c-0.1,0-0.2-0.1-0.2-0.2l-0.3-1.9c0-0.2,0.1-0.4,0.3-0.4H50c0.2,0,0.3,0.2,0.3,0.4l-0.4,2
			C49.9,101,49.8,101,49.7,101L49.7,101z"/>
		<path class="st32" d="M49.2,101.4h-0.9v13.1h0.9V101.4z"/>
		<path class="st32" d="M49.3,116.4h-0.9c-0.1,0-0.3-0.1-0.3-0.2l-0.4-2.7c0-0.2,0.2-0.5,0.4-0.5h1.3c0.2,0,0.4,0.2,0.4,0.5
			l-0.4,2.7C49.5,116.3,49.4,116.4,49.3,116.4L49.3,116.4z"/>
		<path class="st11" d="M50.8,80.4h-4l-0.4-4.3h4.9L50.8,80.4z"/>
		<path class="st11" d="M48.1,101h1.5v0.5c0,0.1-0.1,0.2-0.2,0.2h-1.1c-0.1,0-0.2-0.1-0.2-0.2L48.1,101L48.1,101z"/>
		<path class="st11" d="M47,80.8h-0.3v4H47V80.8z"/>
		<path class="st11" d="M47.7,80.8h-0.3v4h0.3V80.8z"/>
		<path class="st11" d="M48.3,80.8H48v4h0.3V80.8z"/>
		<path class="st11" d="M48.9,80.8h-0.3v4h0.3V80.8z"/>
		<path class="st11" d="M49.5,80.8h-0.3v4h0.3V80.8z"/>
		<path class="st11" d="M50.1,80.8h-0.3v4h0.3V80.8z"/>
		<path class="st11" d="M50.8,80.8h-0.3v4h0.3V80.8z"/>
		<path class="st31" d="M49.7,88.8H48c-0.2,0-0.3,0.1-0.3,0.3v5.5c0,0.2,0.1,0.3,0.3,0.3h1.7c0.2,0,0.3-0.1,0.3-0.3v-5.5
			C50,88.9,49.8,88.8,49.7,88.8z"/>
		<path class="st13" d="M39.9,80.1c-0.3,0.1-0.8,0.3-0.9,0.7c-0.1,0.3,0,0.9,0.2,1s0.2-0.1,0.2-0.1s0,0.2,0.2,0.1
			c0.1,0,0.1-0.4,0.3-0.7c0.1-0.2,0.3-0.3,0.3-0.4c0,0,0,0.4,0.1,0.4c0.1,0,0.3-0.6,0.3-0.8C40.4,80.1,40.1,80,39.9,80.1z"/>
		<path class="st13" d="M39.1,81.1c0,0-0.2,0.6-0.3,0.4c-0.1-0.2,0.1-1.1,0.4-1.2C39.6,80.3,39.1,81.1,39.1,81.1L39.1,81.1z"/>
		<path class="st13" d="M39.1,80.7c0,0-0.3,0.3-0.5,0.3c-0.2,0.1,0.5-0.7,0.9-0.8C39.8,80.2,39.1,80.7,39.1,80.7z"/>
		<path class="st29" d="M56.1,79.3c-0.1-1,0.4-6.4,0.4-6.4s1.8-1.3,2.2-0.4c0.4,1.1,0.7,2.6,1.1,4.3c0.4,1.6-1.3,4.2-1.3,4.2
			S56.2,80.2,56.1,79.3z"/>
		<path class="st29" d="M56.6,73.7c0,0-0.6-0.9-1.6-2c-0.6-0.7-1.4-1.1-2.9-2.8c-0.5-0.5-1.5-3.2,0.3-2.9c2.8,0.4,5.5,4.9,6.1,6.2
			C59.5,74.1,56.6,73.7,56.6,73.7L56.6,73.7z"/>
		<path class="st13" d="M58,80.2c0.3,0.1,0.8,0.3,0.9,0.7c0.1,0.3,0,0.9-0.2,1c-0.1,0.1-0.2-0.1-0.2-0.1s0,0.2-0.2,0.1
			c-0.1,0-0.1-0.4-0.3-0.7c-0.1-0.2-0.3-0.3-0.3-0.4c0,0,0,0.4-0.1,0.4c-0.1,0-0.3-0.6-0.3-0.8C57.5,80.2,57.9,80.2,58,80.2z"/>
		<path class="st13" d="M58.8,81.3c0,0,0.2,0.6,0.3,0.4c0.1-0.2-0.1-1.1-0.4-1.2C58.4,80.4,58.8,81.3,58.8,81.3L58.8,81.3z"/>
		<path class="st13" d="M58.8,80.9c0,0,0.3,0.3,0.5,0.3c0.2,0.1-0.5-0.7-0.9-0.8C58.1,80.3,58.8,80.9,58.8,80.9z"/>
		<path class="st33" d="M47.4,62.6l0.2,0l0.2,1.9l-0.2,0c-0.5,0.1-0.9-0.3-1-0.8l0-0.1C46.6,63.1,47,62.6,47.4,62.6L47.4,62.6z"/>
		<path class="st11" d="M47.7,62.6L47.7,62.6c-0.2,0-0.2,0.1-0.2,0.2l0.2,1.6c0,0.1,0.1,0.1,0.2,0.1l0.1,0c0.1,0,0.1-0.1,0.1-0.2
			l-0.2-1.6C47.8,62.6,47.8,62.6,47.7,62.6z"/>
		<path class="st33" d="M50.7,64.5l-0.2,0l0.3-1.9l0.2,0c0.5,0.1,0.8,0.5,0.7,1l0,0.1C51.6,64.2,51.1,64.6,50.7,64.5L50.7,64.5z"/>
		<path class="st11" d="M50.4,64.4L50.4,64.4c0.2,0,0.2,0,0.3-0.1l0.3-1.6c0-0.1,0-0.1-0.1-0.2l-0.1,0c-0.1,0-0.1,0-0.2,0.1
			l-0.3,1.6C50.3,64.4,50.3,64.4,50.4,64.4z"/>
		<path class="st20" d="M49.1,61.4h0.2c0.7,0,1.3,0.6,1.3,1.3v0.7h-2.8v-0.7C47.8,62,48.4,61.4,49.1,61.4L49.1,61.4z"/>
		<path class="st31" d="M48.6,63.5h-0.3l0-0.3c0,0,0,0,0.1,0h0.1c0,0,0.1,0,0.1,0.1L48.6,63.5L48.6,63.5z"/>
		<path class="st31" d="M49.8,63.4h0.3l0-0.3c0,0,0,0-0.1,0h-0.1c0,0-0.1,0-0.1,0.1L49.8,63.4L49.8,63.4z"/>
		<path class="st20" d="M49.2,61.3L49.2,61.3c0.2,0,0.3,0.1,0.3,0.2V62h-0.5v-0.5C48.9,61.4,49,61.3,49.2,61.3L49.2,61.3z"/>
		<path class="st20" d="M48.9,61.4L48.9,61.4l0,0.6h-0.3v-0.4C48.7,61.5,48.8,61.4,48.9,61.4z"/>
		<path class="st20" d="M49.7,62h-0.3v-0.6h0c0.1,0,0.3,0.1,0.3,0.3V62z"/>
		<path class="st31" d="M47.8,63.4c0,0,0.4,0.1,1.5,0.1c1.1,0,1.3-0.1,1.3-0.1s0,0.3-0.2,0.4c-0.2,0.1-1.8,0.2-2.4,0
			C47.9,63.7,47.8,63.5,47.8,63.4C47.8,63.4,47.8,63.4,47.8,63.4z"/>
		<path class="st31" d="M48.9,61.4c0,0.1,0,0.1,0,0.2c0,0.1,0,0.1,0,0.2s0,0.1,0,0.2c0,0.1,0,0.1,0,0.2c0-0.1,0-0.1,0-0.2
			c0-0.1,0-0.1,0-0.2s0-0.1,0-0.2C48.9,61.5,48.9,61.5,48.9,61.4z"/>
		<path class="st31" d="M49.4,61.4c0,0.1,0,0.1,0,0.2c0,0.1,0,0.1,0,0.2s0,0.1,0,0.2c0,0.1,0,0.1,0,0.2c0-0.1,0-0.1,0-0.2
			c0-0.1,0-0.1,0-0.2s0-0.1,0-0.2C49.4,61.5,49.4,61.5,49.4,61.4z"/>
		<path class="st31" d="M48.7,61.5c0,0.1,0,0.1,0,0.2c0,0.1,0,0.1,0,0.2c0-0.1,0-0.1,0-0.2C48.7,61.6,48.7,61.6,48.7,61.5z"/>
		<path class="st31" d="M49.7,61.5c0,0.1,0,0.1,0,0.2s0,0.1,0,0.2c0-0.1,0-0.1,0-0.2S49.7,61.6,49.7,61.5z"/>
		<path class="st11" d="M47.7,62.7C47.7,62.7,47.7,62.7,47.7,62.7C47.7,62.7,47.7,62.7,47.7,62.7c-0.1-0.1,0.1-1,0.8-1.2
			c0.4-0.1,0.9-0.1,1.2,0c0.4,0.2,0.7,0.5,0.9,1.1c0,0,0,0.1,0,0.1c0,0-0.1,0-0.1,0c-0.2-0.5-0.4-0.8-0.8-1c-0.3-0.1-0.8-0.1-1.2,0
			C48,61.8,47.8,62.7,47.7,62.7C47.8,62.7,47.8,62.7,47.7,62.7L47.7,62.7z"/>
		<path class="st7" d="M238.9,115.1c7.2,0,13-1.2,13-2.6c0-1.4-5.8-2.6-13-2.6c-7.2,0-13,1.2-13,2.6
			C226,114,231.8,115.1,238.9,115.1z"/>
		<path class="st34" d="M237.7,1.4c0,0,1-0.7,2.1-0.2c1,0.4,0.8,1.1,0.8,1.1s2.1-1,4,1.7c1.8,2.8-1.6,5.4-2.6,5.2
			c-1-0.2-7.8-3.1-7.8-3.1s0-4.4,0.9-4.8C236.1,0.9,237.7,1.4,237.7,1.4L237.7,1.4z"/>
		<path class="st35" d="M233.9,13.8c1.6,0.1,0.6,10.7,0.8,15.4c0.1,1.5,0.3,2.9,0.6,4.3l2.4,13.2l0.2-0.1c0,0,1.3-10.2,0.7-15.6
			c-0.4-3.8,4-12.3,0.4-17.5C238,13.3,235.5,13.7,233.9,13.8L233.9,13.8z"/>
		<path class="st12" d="M236,47.5c0.1-0.2,0.6-0.4,1.1-0.6c-0.1,0.1-0.2,0.2,0,0.3c0.3,0.1,0.9,0,1.1-0.3c0.1,0.2,0.1,0.4,0.1,0.5
			C238.2,47.6,235.8,47.8,236,47.5L236,47.5z"/>
		<path class="st35" d="M237,47.2c-0.2-0.1-0.1-0.2,0-0.3c0.3-0.1,0.5-0.2,0.5-0.2c0.1-0.1,0.2-0.2,0.2-0.2l0.1,0
			c0,0,0.2,0.4,0.2,0.4C237.9,47.1,237.3,47.2,237,47.2L237,47.2z"/>
		<path class="st13" d="M235.7,14c0,0.1,4.6,17.4,4.6,17.4l1.8,15.2l0.3,0.1c0,0,2.9-11.1,1.2-16.1c-0.8-2.5,0.8-6.4,0.7-10.9
			c0-2-0.9-4.6-2.6-6C240.7,13.4,237.3,13.8,235.7,14L235.7,14z"/>
		<path class="st36" d="M241.6,13.6c0,0,1.1,0.1,2.5,3.6c1.4,3.5,0.6,10.6,0.6,10.6s-6.8,2.5-10.6,0.9l0.6-13.5L241.6,13.6
			L241.6,13.6z"/>
		<path class="st12" d="M241.6,13.6c0,0,1.1,0.1,2.5,3.6c1.4,3.5,0.6,10.6,0.6,10.6s-3,1.1-5.7,1.3c0,0-1,0-1,0s0-5.8,0-7.8
			c0.1-4.7-0.5-6.9-0.5-6.9L241.6,13.6L241.6,13.6z"/>
		<path class="st12" d="M240.5,47.4c0.1-0.2,0.6-0.4,1-0.6c-0.1,0.1-0.2,0.2,0,0.3c0.3,0.1,0.9-0.1,1.1-0.3c0.1,0.2,0.1,0.4,0.1,0.5
			C242.7,47.5,240.3,47.8,240.5,47.4L240.5,47.4z"/>
		<path class="st13" d="M241.4,47.1c-0.2,0-0.1-0.2,0-0.3c0.3-0.1,0.5-0.2,0.5-0.2c0.1-0.1,0.2-0.2,0.2-0.2l0.1,0
			c0,0,0.2,0.3,0.3,0.4C242.4,47,241.7,47.1,241.4,47.1L241.4,47.1z"/>
		<path class="st33" d="M233.6,12.5c0,0-5.2-0.1-6.3-0.8c-0.1-0.1-0.2-0.3-0.3-0.4c-0.4-0.7-0.9-2.1,1.7-1.8c2.9,0.3,5,1.2,5,1.2
			S233.5,11,233.6,12.5L233.6,12.5z"/>
		<path class="st33" d="M236.5,4.8c0,0-2.2,4.8-3.6,6.5c-1.9,2.2-1.6-1.2-1.6-1.2s0.8-2.7,1.6-3.9C233.8,5,236.4,3.4,236.5,4.8
			L236.5,4.8z"/>
		<path class="st37" d="M233.5,7.3c-0.3,2.1-0.3,3,0.4,5.6c0.2,0.8,7.7,1.3,7.8,0.8c0-0.2,0.3-1.4,0.4-2.1c0.6-3.2,0.9-4.2,0.4-5.4
			c-0.3-0.8-0.5-1.8-4.8-2.2c-1.4-0.1-2.4,0.3-2.8,0.6C234.2,5.2,233.6,6.5,233.5,7.3L233.5,7.3z"/>
		<path class="st33" d="M237.6,4.1c0,0-1,2-1.1,4.3c-0.1,2.4,0.3,5,0.4,5.4c0,0-1.8,0-2.7-0.5c-0.1-0.1-0.2-0.2-0.3-0.4
			c-0.2-0.9-1.1-4.5-0.3-6.6C234.4,3.9,237.6,4.1,237.6,4.1L237.6,4.1z"/>
		<path class="st38" d="M240.1,12.2c0.1-0.8,0.5-3.4,0.5-3.4s0-4.9,1.7-3.1c1.1,1.2,0.5,5.8-0.5,8.4C241.4,15,239.8,14,240.1,12.2
			L240.1,12.2z"/>
		<path class="st38" d="M239.1,12.4c0,0-6,1.3-6.2,2.2c-0.2,0.9,0.8,1.7,2.5,1.9c0.7,0.1,5.3-0.1,6.3-2.3
			C242.6,12.1,239.1,12.4,239.1,12.4z"/>
		<path class="st13" d="M236.6,2.8c0,0,0.5,1.5,0.6,1.7s0.5,0.2,0.6-0.2c0-0.4-0.7-1.6-0.7-1.6L236.6,2.8z"/>
		<path class="st17" d="M236.9,3.8c0.2,0.1,0.7,0.1,0.7-0.2c-0.1-0.3-0.2-0.4-0.3-0.6l-0.5,0.2C236.7,3.4,236.8,3.5,236.9,3.8
			L236.9,3.8z"/>
		<path class="st13" d="M237.6,2.4c0-0.3-0.5-1.1-0.5-1.1c-0.5-0.5-1.7,0.4-1.9,0.7c-0.2,0.3,0,0.6,0.1,0.9c0.1,0.3,0.4,0.7,0.7,0.8
			c0.2,0.1,0.7,0.1,0.9,0C237.6,3.2,237.7,3,237.6,2.4L237.6,2.4z"/>
		<path class="st39" d="M241.2,12.4l0,0.7l-3.5,1.6l-3-0.1l3-0.8L241.2,12.4z"/>
		<path class="st40" d="M228,13.6l9.6,0.3l3.7-1.5L228,12.2L228,13.6z"/>
		<path class="st41" d="M228,14.3l9.7,0.5l-1.2-7.7l-9.8,0.1L228,14.3z"/>
		<path class="st39" d="M238,14.5l-0.4,0.3l-1.2-7.7l0.4-0.1L238,14.5z"/>
		<path class="st39" d="M236.9,7l-9.4,0.1l-0.8,0.1l9.8-0.1L236.9,7z"/>
		<path class="st13" d="M232.5,14.8c-0.2-0.2-0.3-0.4-0.2-0.6c0-0.1,0.1-0.1,0.1-0.1s0-0.1,0.1-0.2c0.1,0,0.2,0.3,0.4,0.4
			c0.1,0.1,0.2,0.2,0.3,0.2c0,0-0.1-0.3,0-0.3c0.1,0,0.2,0.3,0.3,0.5C233.4,14.9,232.7,15,232.5,14.8L232.5,14.8z"/>
		<path class="st13" d="M233,14.5c-0.2-0.2-0.4-0.7-0.4-0.6c-0.1,0.1,0,0.2,0.1,0.4C232.8,14.5,233,14.5,233,14.5L233,14.5z"/>
		<path class="st13" d="M227.3,10.5c0.1-0.1,0.2-0.2,0.3-0.3c0,0,0.1-0.1,0.1-0.1c0,0,0.1-0.1,0.1-0.1c0,0,0,0-0.1,0c0,0,0,0,0,0
			c0,0,0,0,0,0c0,0,0,0,0,0c0,0,0,0,0,0c0,0,0,0-0.1,0c0,0,0.1-0.1,0.1-0.1c0,0,0.1-0.1,0.1-0.2c0,0,0,0,0,0c0,0,0,0,0,0
			c0,0,0,0,0,0c0,0-0.1-0.1-0.3,0c0.1-0.1,0-0.1,0-0.1c-0.1,0-0.3,0.1-0.3,0.2C227,10,227.3,10.6,227.3,10.5L227.3,10.5z"/>
		<path class="st34" d="M235.6,1.3c0,0,0.1,1.5,1.5,1.6c0,0,0.1,2,1.9,2c1.8,0,2-0.1,2-0.1l-0.8-2.6L235.6,1.3L235.6,1.3z"/>
		<path class="st19" d="M235.6,1.9l0,0.2c0,0,0.1,0.1,0.1,0.1c0.1,0,0.1-0.1,0.1-0.1l0-0.2L235.6,1.9z M235.7,2.1
			C235.7,2.1,235.7,2.1,235.7,2.1C235.7,2.1,235.7,2.1,235.7,2.1C235.7,2.1,235.7,2.1,235.7,2.1C235.7,2.1,235.7,2.1,235.7,2.1z"/>
		<path class="st18" d="M236.7,1.8l0.3,0.3c0,0,0,0,0.1,0l0.4-0.1l0,0.1c0,0,0.2-0.2,0.2-0.3C237.7,1.6,236.7,1.8,236.7,1.8
			L236.7,1.8z"/>
		<path class="st20" d="M234.2,2.6c0,0-0.1,0.2,0.9-0.2c0.1,0,0.1-0.1,0.2-0.1c0.2-0.1,0.6-0.4,1-0.4c0.5,0,0.5,0.1,0.8,0.1
			c0.4-0.1,0.7-0.2,0.7-0.3c0,0,0,0-0.1,0l-0.1-0.4l-0.1,0c0,0-0.4-1.4-1.6-1.2c-1.2,0.2-1.3,0.9-1.4,1.2c0,0.2,0,0.6,0,0.8
			c0,0.1,0,0.2-0.1,0.3C234.4,2.4,234.2,2.5,234.2,2.6L234.2,2.6z"/>
		<path class="st19" d="M237.7,1.2c0,0-0.3,0.2-1.1,0.2c-0.8,0-0.9,0.2-1.2,0.3c-0.3,0.1-0.5,0.2-0.5,0.2s-0.1,0.3-0.2,0.4
			c0,0,0.3,0.1,0.8-0.2c0.6-0.3,0.8-0.3,1.1-0.3c0.3,0,0.4,0.1,0.6,0.1c0.2,0,0.6-0.2,0.6-0.2C237.8,1.6,237.7,1.2,237.7,1.2
			L237.7,1.2z"/>
		<path class="st20" d="M235,2.2l0-0.2c0,0,0,0,0-0.1l0.2,0c0,0,0.1,0,0.1,0l0.1,0.2C235.3,2.1,235.2,2.2,235,2.2z"/>
		<path class="st19" d="M235,0.7c0.1-0.2,0.3-0.3,0.5-0.4c0.1-0.1,0.2-0.1,0.3-0.1c0.1,0,0.2-0.1,0.3-0.1c0.1,0,0.2,0,0.3,0
			c0.1,0,0.2,0,0.3,0.1c0.2,0.1,0.4,0.2,0.5,0.4c-0.2-0.1-0.4-0.2-0.5-0.3c-0.2,0-0.4,0-0.6,0c-0.1,0-0.2,0-0.3,0.1
			c-0.1,0-0.2,0.1-0.3,0.1C235.3,0.4,235.1,0.6,235,0.7L235,0.7z"/>
		<path class="st39" d="M243.9,56.5c-0.1,0-0.1,0-0.2-0.1l-8.7-6.1c-0.2-0.1-0.2-0.3-0.1-0.5c0.1-0.2,0.3-0.2,0.5-0.1l8.7,6.1
			c0.2,0.1,0.2,0.3,0.1,0.5C244.1,56.5,244,56.5,243.9,56.5z"/>
		<path class="st39" d="M243.8,62.7c-0.1,0-0.1,0-0.2-0.1l-8.7-6.1c-0.1-0.1-0.2-0.3-0.1-0.5c0.1-0.2,0.3-0.2,0.5-0.1l8.7,6.1
			c0.2,0.1,0.2,0.3,0.1,0.5C244,62.6,243.9,62.7,243.8,62.7z"/>
		<path class="st42" d="M235.1,56.6c-0.1,0-0.2,0-0.3-0.1c-0.1-0.2-0.1-0.4,0.1-0.5l9-6.2c0.2-0.1,0.4-0.1,0.5,0.1
			c0.1,0.2,0.1,0.4-0.1,0.5l-9,6.2C235.2,56.6,235.2,56.6,235.1,56.6L235.1,56.6z"/>
		<path class="st42" d="M235.1,62.7c-0.1,0-0.2,0-0.3-0.1c-0.1-0.2-0.1-0.4,0.1-0.5l8.9-6.1c0.2-0.1,0.4-0.1,0.5,0.1
			c0.1,0.2,0.1,0.4-0.1,0.5l-8.9,6.1C235.2,62.7,235.2,62.7,235.1,62.7z"/>
		<path class="st39" d="M243.7,68.9c-0.1,0-0.1,0-0.2-0.1l-8.7-6.1c-0.1-0.1-0.2-0.3-0.1-0.5c0.1-0.2,0.3-0.2,0.5-0.1l8.7,6.1
			c0.2,0.1,0.2,0.3,0.1,0.5C243.9,68.9,243.8,68.9,243.7,68.9z"/>
		<path class="st39" d="M243.6,75.1c-0.1,0-0.1,0-0.2-0.1l-8.7-6.1c-0.1-0.1-0.2-0.3-0.1-0.5c0.1-0.2,0.3-0.2,0.5-0.1l8.7,6.1
			c0.1,0.1,0.2,0.3,0.1,0.5C243.8,75,243.7,75.1,243.6,75.1z"/>
		<path class="st42" d="M234.9,69c-0.1,0-0.2-0.1-0.3-0.1c-0.1-0.2-0.1-0.4,0.1-0.5l9-6.2c0.2-0.1,0.4-0.1,0.5,0.1
			c0.1,0.2,0.1,0.4-0.1,0.5l-9,6.2C235.1,69,235,69,234.9,69L234.9,69z"/>
		<path class="st42" d="M234.9,75.1c-0.1,0-0.2,0-0.3-0.1c-0.1-0.2-0.1-0.4,0.1-0.5l8.9-6.1c0.2-0.1,0.4-0.1,0.5,0.1
			c0.1,0.2,0.1,0.4-0.1,0.5l-8.9,6.1C235.1,75.1,235,75.1,234.9,75.1z"/>
		<path class="st39" d="M243.4,81.4c-0.1,0-0.1,0-0.2-0.1l-8.7-6.1c-0.1-0.1-0.2-0.3-0.1-0.5c0.1-0.2,0.3-0.2,0.5-0.1l8.7,6.1
			c0.1,0.1,0.2,0.3,0.1,0.5C243.6,81.3,243.5,81.4,243.4,81.4z"/>
		<path class="st39" d="M243.3,87.5c-0.1,0-0.1,0-0.2-0.1l-8.7-6.1c-0.2-0.1-0.2-0.3-0.1-0.5c0.1-0.2,0.3-0.2,0.5-0.1l8.7,6.1
			c0.1,0.1,0.2,0.3,0.1,0.5C243.5,87.5,243.4,87.5,243.3,87.5z"/>
		<path class="st42" d="M234.6,81.5c-0.1,0-0.2-0.1-0.3-0.1c-0.1-0.2-0.1-0.4,0.1-0.5l9-6.2c0.2-0.1,0.4-0.1,0.5,0.1
			c0.1,0.2,0.1,0.4-0.1,0.5l-9,6.2C234.7,81.4,234.7,81.5,234.6,81.5L234.6,81.5z"/>
		<path class="st42" d="M234.6,87.5c-0.1,0-0.2-0.1-0.3-0.1c-0.1-0.2-0.1-0.4,0.1-0.5l8.9-6.1c0.2-0.1,0.4-0.1,0.5,0.1
			c0.1,0.2,0.1,0.4-0.1,0.5l-8.9,6.1C234.7,87.5,234.7,87.5,234.6,87.5z"/>
		<path class="st39" d="M243.2,93.7c-0.1,0-0.1,0-0.2-0.1l-8.7-6.1c-0.1-0.1-0.2-0.3-0.1-0.5c0.1-0.2,0.3-0.2,0.5-0.1l8.7,6.1
			c0.2,0.1,0.2,0.3,0.1,0.5C243.4,93.6,243.3,93.7,243.2,93.7z"/>
		<path class="st39" d="M243.1,99.8c-0.1,0-0.1,0-0.2-0.1l-8.7-6.1c-0.2-0.1-0.2-0.3-0.1-0.5c0.1-0.2,0.3-0.2,0.5-0.1l8.7,6.1
			c0.1,0.1,0.2,0.3,0.1,0.5C243.3,99.8,243.2,99.8,243.1,99.8z"/>
		<path class="st42" d="M234.4,93.8c-0.1,0-0.2-0.1-0.3-0.1c-0.1-0.2-0.1-0.4,0.1-0.5l9-6.2c0.2-0.1,0.4-0.1,0.5,0.1
			c0.1,0.2,0.1,0.4-0.1,0.5l-9,6.2C234.6,93.7,234.5,93.8,234.4,93.8L234.4,93.8z"/>
		<path class="st42" d="M234.4,99.8c-0.1,0-0.2-0.1-0.3-0.1c-0.1-0.2-0.1-0.4,0.1-0.5l8.9-6.1c0.2-0.1,0.4-0.1,0.5,0.1
			c0.1,0.2,0.1,0.4-0.1,0.5l-8.9,6.1C234.6,99.8,234.5,99.8,234.4,99.8z"/>
		<path class="st39" d="M243,105.8c-0.1,0-0.1,0-0.2-0.1l-8.7-6.1c-0.1-0.1-0.2-0.3-0.1-0.5c0.1-0.2,0.3-0.2,0.5-0.1l8.7,6.1
			c0.1,0.1,0.2,0.3,0.1,0.5C243.2,105.7,243.1,105.8,243,105.8z"/>
		<path class="st42" d="M234.3,105.8c-0.1,0-0.2-0.1-0.3-0.1c-0.1-0.2-0.1-0.4,0.1-0.5l8.9-6.1c0.2-0.1,0.4-0.1,0.5,0.1
			c0.1,0.2,0.1,0.4-0.1,0.5l-8.9,6.1C234.4,105.8,234.4,105.8,234.3,105.8z"/>
		<path class="st42" d="M246.7,50.1h-14.6V27.5c0-0.9,0.7-1.6,1.6-1.6h11.4c0.9,0,1.6,0.7,1.6,1.6V50.1z M232.5,49.8h13.9V27.5
			c0-0.7-0.6-1.2-1.2-1.2h-11.4c-0.7,0-1.2,0.6-1.2,1.2V49.8z"/>
		<path class="st42" d="M237,26h-0.3v23h0.3V26z"/>
		<path class="st42" d="M234.3,26H234v23h0.3V26z"/>
		<path class="st42" d="M239.7,26h-0.3v23h0.3V26z"/>
		<path class="st42" d="M245.1,26h-0.3v23h0.3V26z"/>
		<path class="st42" d="M242.4,26.2h-0.3v22.6h0.3V26.2z"/>
		<path class="st43" d="M246.7,47.6h-14.6v2.5h14.6V47.6z"/>
		<path class="st39" d="M241,111.1c-0.1,0-0.1,0-0.2,0l-6.8-3.9c-0.2-0.1-0.2-0.3-0.1-0.5c0.1-0.2,0.3-0.2,0.5-0.1l6.8,3.9
			c0.2,0.1,0.2,0.3,0.1,0.5C241.2,111,241.1,111.1,241,111.1z"/>
		<path class="st39" d="M236.3,111.1c-0.1,0-0.2-0.1-0.3-0.2c-0.1-0.2,0-0.4,0.1-0.5l6.9-4c0.2-0.1,0.4,0,0.5,0.1
			c0.1,0.2,0,0.4-0.1,0.5l-6.9,4C236.4,111,236.3,111.1,236.3,111.1L236.3,111.1z"/>
		<path class="st39" d="M244.4,110.7h-11.1v0.5h11.1V110.7z"/>
		<path class="st39" d="M232.4,107.2l1,3.8h0.6v-3.8H232.4z"/>
		<path class="st43" d="M233.5,112.8c1,0,1.8-0.8,1.8-1.8c0-1-0.8-1.8-1.8-1.8c-1,0-1.8,0.8-1.8,1.8
			C231.7,112,232.5,112.8,233.5,112.8z"/>
		<path class="st39" d="M233.5,111.5c0.3,0,0.6-0.3,0.6-0.6c0-0.3-0.3-0.6-0.6-0.6c-0.3,0-0.6,0.3-0.6,0.6
			C232.9,111.3,233.2,111.5,233.5,111.5z"/>
		<path class="st39" d="M245.7,107l-1,3.8H244V107H245.7z"/>
		<path class="st43" d="M242.8,110.8c0,1,0.8,1.8,1.8,1.8s1.8-0.8,1.8-1.8c0-1-0.8-1.8-1.8-1.8S242.8,109.8,242.8,110.8z"/>
		<path class="st39" d="M244,110.8c0,0.3,0.3,0.6,0.6,0.6s0.6-0.3,0.6-0.6s-0.3-0.6-0.6-0.6S244,110.5,244,110.8z"/>
		<path class="st43" d="M246.4,105.5h-14.6v1.8h14.6V105.5z"/>
		<path class="st7" d="M217.5,132.2c6.5,0,11.8-0.8,11.8-1.8c0-1-5.3-1.8-11.8-1.8s-11.8,0.8-11.8,1.8
			C205.7,131.4,210.9,132.2,217.5,132.2z"/>
		<path class="st12" d="M223.6,130.7c0.9-0.2-0.2-1.2-0.9-1.3c0.2,0.1,0.4,0.2,0.1,0.3c-0.4,0.1-1.1-0.3-1.3-0.5
			c-0.1,0.2-0.1,0.5-0.1,0.6C221.4,130,223,130.8,223.6,130.7z"/>
		<path class="st13" d="M222.9,129.8c0.3,0,0.1-0.4-0.1-0.5c-0.7-0.4-0.7-0.7-0.7-0.7l-0.4,0c0,0-0.1,0.5-0.2,0.6
			C221.7,129.4,222.2,129.9,222.9,129.8L222.9,129.8z"/>
		<path class="st12" d="M211.2,130.4c-0.1-0.9,1-0.8,1.7-1c-0.2,0.1-0.4,0.3-0.1,0.4c0.4,0.1,1.3,0,1.6-0.3c0.1,0.2,0.1,0.5,0.1,0.7
			C214.5,130.5,211.3,130.6,211.2,130.4L211.2,130.4z"/>
		<path class="st13" d="M212.8,129.8c-0.3-0.1-0.4-0.3,0.1-0.4c0.4-0.1,0.7-0.2,0.8-0.2c0.2-0.1,0.2-0.4,0.2-0.4l0.4,0
			c0,0,0.1,0.6,0.2,0.7C214.1,129.8,213.2,129.9,212.8,129.8L212.8,129.8z"/>
		<path class="st12" d="M210.5,99.9c0.7-1.8,1.3-3.2,1.7-3.3c2.2-1,5.3-2.3,5.8-2.2c0.4,0.2,2.9,4,3.3,6.4
			c1.1,5.8,1.1,25.8,1.1,27.8c0,0.1-0.1,0.2-0.2,0.2l-0.6,0.1c-0.1,0-0.2,0-0.2-0.1c-0.4-1.2-2.9-9.3-4.3-16.3
			c-1-4.8-1.6-8.9-1.8-9.1c-0.7,2.1-0.5,21.7-1,25.5c-0.1,0.6-1.3,0.1-1.3-0.4c0-2.3-2.8-9.8-3.6-17.2
			C209,106.2,209.5,102.7,210.5,99.9L210.5,99.9z"/>
		<path class="st11" d="M210.5,99.9c0.7-1.8,1.3-3.2,1.7-3.3c0.6-0.3,1.2-0.5,1.9-0.8c0.9-0.4-1.8,5.4-2,13.4
			c-0.1,3.2,0.6,7.4,0.9,10.5c0.3,3.8,0.6,5.7,0.7,7.3c0.1,0.7,0.3,2.1,0.3,2.1c-0.5-0.1-0.7-0.5-0.7-0.7c-0.5-2.3-2.8-9.8-3.6-17.2
			C209,106.2,209.5,102.7,210.5,99.9L210.5,99.9z"/>
		<path class="st6" d="M202.4,95.5c0.7-0.4,3.7-1.9,3.7-1.9s2-2.9,2.6-3.5c0.3-0.3,0.6-0.6,0.6-0.6c0.3-0.3,1.1-0.5,2.2-0.7
			c-0.3,0.9-2.6,3.8-2.6,3.6c-0.4,0.7-1,1.5-1.5,2.2c-0.7,0.8-1.1,1.2-2.2,2.2c-1.1,1-3.4,0.4-3.4,0.4S201.7,96,202.4,95.5
			L202.4,95.5z"/>
		<path class="st4" d="M215.9,89.2c0.4,1.1,1.1,3,2.3,5.4c0,0,0.2,0.5-2.1,1.9c-2.1,1.2-4.6,1.1-4.6,1.1s-1.1-1.7-2-3.7
			c-1-2.2-0.8-3.8-0.4-4.1c0.1-0.2,2.6-2.1,5-1.9C214.9,87.8,215.6,88.4,215.9,89.2L215.9,89.2z"/>
		<path class="st44" d="M200.3,92.9l-1.4,1.7l3.9,3.1l1.4-1.7L200.3,92.9z"/>
		<path class="st11" d="M190.8,77.1c2.2,0,4.3,0.7,6,2.1c2,1.6,3.2,3.9,3.5,6.4c0.3,2.5-0.5,5-2.1,7c-1.8,2.3-4.5,3.5-7.4,3.5
			c-2.2,0-4.3-0.7-6-2.1c-2-1.6-3.2-3.9-3.5-6.4c-0.3-2.5,0.5-5,2.1-7C185.2,78.4,187.9,77.1,190.8,77.1 M190.8,74.4
			c-3.6,0-7.1,1.6-9.5,4.5c-4.2,5.2-3.4,12.9,1.8,17.2c2.3,1.8,5,2.7,7.7,2.7c3.6,0,7.1-1.6,9.5-4.5c4.2-5.2,3.4-12.9-1.8-17.2
			C196.2,75.3,193.5,74.4,190.8,74.4z"/>
		<path class="st33" d="M212.1,106.7l2.8-3.5l-10.1-8.1l-2.8,3.5L212.1,106.7z"/>
		<path class="st11" d="M211.3,106.1l2.8-3.5l-8.5-6.9l-2.8,3.5L211.3,106.1z"/>
		<g class="st45">
			<path class="st46" d="M199.1,93.1c3.6-4.6,2.8-11.2-1.8-14.8c-4.6-3.6-11.2-2.8-14.8,1.8c-3.6,4.6-2.8,11.2,1.8,14.8
				C188.9,98.5,195.5,97.7,199.1,93.1z"/>
		</g>
		<path class="st13" d="M202.5,97.7C202.5,97.7,202.5,97.7,202.5,97.7c-0.3-0.1-1.2-0.4-1.2-0.8c0-0.6,0.6-0.9,0.8-0.8
			c0.2,0.1-0.1,0.4-0.1,0.4s0-0.1,0.1,0c0.2,0,0,0.4,0,0.6C202.2,97.3,202.8,97.7,202.5,97.7L202.5,97.7z"/>
		<path class="st13" d="M205.8,98c0,0-0.1-0.1-0.2-0.2c-0.1-0.1-0.2-0.2-0.2-0.2c0.1,0,0.2,0,0.3,0.1c0.3,0.2,0.6,0.4,0.3,0.4
			C205.9,98,205.8,98,205.8,98L205.8,98z"/>
		<path class="st13" d="M206.4,98.1c0-0.1-0.1-0.1-0.1-0.1c-0.2-0.1-0.6-0.2-0.8-0.2c-0.2,0-0.9,0.2-1,0.3c-0.1,0.1,0.3,0.1,0.3,0.1
			s-0.4,0-0.4,0.2c0,0.2,0.6,0.2,0.6,0.2s-0.2,0.2-0.1,0.2c0.1,0,0.4,0,0.6,0c0.1,0,0.3,0,0.4-0.1c0.2-0.1,0.5-0.2,0.6-0.3
			C206.5,98.4,206.4,98.2,206.4,98.1L206.4,98.1z"/>
		<path class="st6" d="M214.9,97c-1.8,0.6-3.4,0.6-3.4,0.6s-1-1.7-2-3.7c-1.1-2.2-0.7-3.7-0.4-4.1c0.3-0.3,1.4-0.9,1.4-0.9
			s-0.5,2.6,0.6,4.6C212.1,95.5,215.1,96.9,214.9,97z"/>
		<path class="st4" d="M213.7,87.9c0.1-0.3,1,0.1,1.2,0.3c0.4,0.6,0.6,0.9,1,2c0.6,1.7,0.5,5.1-0.6,6.9c-0.8,1.3-7.3,3.5-8.7,1.6
			c-0.5-0.7-0.3-1.2-0.3-1.2l7.5-2.4l-0.4-4.5C213.4,90.6,213.1,89,213.7,87.9L213.7,87.9z"/>
		<path class="st47" d="M215.9,90.3c0.2,0.5,0.4,1.1,0.4,1.7c0.1,0.6,0.1,1.2,0,1.8c0,0.6-0.1,1.2-0.3,1.8c-0.2,0.6-0.4,1.1-0.8,1.6
			c0.3-0.5,0.4-1.1,0.6-1.7c0.1-0.6,0.2-1.1,0.2-1.7c0-0.6,0.1-1.2,0-1.7C216,91.4,216,90.9,215.9,90.3L215.9,90.3z"/>
		<path class="st47" d="M212,95.7c0.3-0.1,0.6-0.2,0.8-0.3c0.3-0.1,0.6-0.2,0.9-0.3l-0.1,0.1c-0.1-0.7-0.2-1.5-0.2-2.2
			c-0.1-0.8-0.1-1.5-0.2-2.3v0c0-0.2,0-0.5,0-0.7c0-0.2,0-0.5,0-0.7c0.1-0.5,0.2-0.9,0.4-1.3c-0.1,0.2-0.2,0.4-0.2,0.6
			c0,0.2-0.1,0.4-0.1,0.7c0,0.4,0,0.9,0.1,1.3v0v0c0.1,0.8,0.1,1.5,0.2,2.3c0.1,0.8,0.1,1.5,0.1,2.3v0c0,0,0,0.1-0.1,0.1
			c-0.3,0.1-0.6,0.2-0.9,0.2C212.6,95.5,212.3,95.6,212,95.7L212,95.7z"/>
		<path class="st13" d="M210.4,87.5c0,0,0.9,0.9,0.9,1.1c0,0.2-0.3,0.6-0.7,0.5c-0.4-0.1-0.8-1.2-0.8-1.2L210.4,87.5z"/>
		<path class="st17" d="M211.1,88.2c-0.2,0.2-0.4,0.4-0.9,0.4c-0.1-0.2-0.1-0.2-0.2-0.4l0.7-0.5C210.7,87.8,210.9,88,211.1,88.2
			L211.1,88.2z"/>
		<path class="st13" d="M208.6,88.2c-0.1-0.1-0.3-0.6-0.5-1.1c-0.1-0.4,0.1-0.8,0.4-0.9c0.6-0.2,1.2-0.3,1.4-0.3
			c0.3,0.1,0.5,0.5,0.6,0.7c0.1,0.3,0.2,0.8,0.1,1.1c-0.1,0.3-0.5,0.6-0.7,0.7C209.2,88.8,208.9,88.6,208.6,88.2L208.6,88.2z"/>
		<path class="st11" d="M209.4,86.4c0,0-0.8,1.1-1.8,1c-1-0.1-0.8-0.5-0.8-0.5S208.9,86.2,209.4,86.4"/>
		<path class="st11" d="M209.4,86.1c0,0,0.6,1.7,1.2,1.6c0.3-0.1,0.3-1.6,0.3-1.6H209.4z"/>
		<path class="st19" d="M208.5,86.6v0.2c0,0.1,0,0.1,0.1,0.1c0.1,0,0.1,0,0.1-0.1v-0.2H208.5z M208.6,86.8
			C208.5,86.8,208.5,86.8,208.6,86.8C208.5,86.7,208.5,86.7,208.6,86.8C208.6,86.7,208.6,86.7,208.6,86.8
			C208.6,86.8,208.6,86.8,208.6,86.8z"/>
		<path class="st18" d="M209.8,86.6L210,87c0,0,0,0,0.1,0l0.5,0l0,0.1c0,0,0.2-0.2,0.3-0.3C211,86.6,209.8,86.6,209.8,86.6z"/>
		<path class="st20" d="M206.7,87c0,0-0.1,0.2,1.1-0.1c0.1,0,0.2-0.1,0.3-0.1c0.2-0.1,0.8-0.3,1.3-0.3c0.6,0.1,0.5,0.3,1,0.3
			c0.4,0,0.8-0.1,0.8-0.2c0,0,0,0-0.1,0l-0.1-0.5l-0.1-0.1c0,0-0.1-1.6-1.6-1.7c-1.4,0-1.7,0.7-1.8,1.1c-0.1,0.2-0.2,0.6-0.2,0.9
			c0,0.1-0.1,0.2-0.2,0.3C207,86.8,206.8,86.9,206.7,87L206.7,87z"/>
		<path class="st19" d="M211,86.1c0,0-0.4,0.2-1.3,0c-0.9-0.2-1.1,0-1.5,0.1c-0.4,0.1-0.6,0.1-0.6,0.1s-0.2,0.3-0.3,0.4
			c0,0,0.3,0.2,1-0.1c0.7-0.2,1-0.2,1.3-0.1c0.3,0.1,0.4,0.3,0.7,0.3c0.3,0,0.7,0,0.7-0.1C211.1,86.6,211.1,86.2,211,86.1L211,86.1z
			"/>
		<path class="st20" d="M207.7,86.7l0-0.3c0,0,0-0.1,0.1-0.1l0.2,0c0,0,0.1,0,0.1,0.1l0,0.2C208.1,86.7,207.9,86.8,207.7,86.7
			L207.7,86.7z"/>
		<path class="st19" d="M208,85c0.2-0.2,0.4-0.3,0.6-0.4c0.1,0,0.2-0.1,0.4-0.1c0.1,0,0.3,0,0.4,0c0.1,0,0.2,0,0.4,0.1
			c0.1,0,0.2,0.1,0.4,0.1c0.2,0.1,0.4,0.3,0.5,0.5c-0.2-0.2-0.4-0.3-0.6-0.4c-0.2-0.1-0.4-0.1-0.7-0.2c-0.1,0-0.2,0-0.4,0
			c-0.1,0-0.2,0-0.3,0.1C208.5,84.8,208.2,84.9,208,85L208,85z"/>
	</g>
</g>
</svg>
