<svg width="24" height="24" viewBox="0 0 24 24" fill="none" xmlns="http://www.w3.org/2000/svg">
<path d="M4.56752 19.9248C4.06235 19.9248 3.63477 19.7498 3.28477 19.3998C2.93477 19.0498 2.75977 18.6222 2.75977 18.1171V6.73255C2.75977 6.22739 2.93477 5.7998 3.28477 5.4498C3.63477 5.0998 4.06235 4.9248 4.56752 4.9248H10.0578L12.0578 6.9248H19.952C20.4572 6.9248 20.8848 7.0998 21.2348 7.4498C21.5848 7.7998 21.7598 8.22739 21.7598 8.73255V18.1171C21.7598 18.6222 21.5848 19.0498 21.2348 19.3998C20.8848 19.7498 20.4572 19.9248 19.952 19.9248H4.56752ZM4.56752 18.4248H19.952C20.0419 18.4248 20.1156 18.396 20.1733 18.3383C20.2309 18.2806 20.2598 18.2069 20.2598 18.1171V8.73255C20.2598 8.64272 20.2309 8.56897 20.1733 8.51131C20.1156 8.45364 20.0419 8.4248 19.952 8.4248H11.4443L9.44427 6.4248H4.56752C4.47768 6.4248 4.40393 6.45364 4.34627 6.51131C4.2886 6.56897 4.25977 6.64272 4.25977 6.73255V18.1171C4.25977 18.2069 4.2886 18.2806 4.34627 18.3383C4.40393 18.396 4.47768 18.4248 4.56752 18.4248Z" fill="#4B5160"/>
</svg>
