<svg width="48" height="48" viewBox="0 0 48 48" fill="none" xmlns="http://www.w3.org/2000/svg">
<path d="M31.2967 7H16.7033L14 12H34L31.2967 7Z" fill="white"/>
<path d="M42 12C43.1046 12 44 12.8954 44 14V40C44 41.1046 43.1046 42 42 42H6C4.89543 42 4 41.1046 4 40V14C4 12.8954 4.89543 12 6 12H42ZM24 18C19.0294 18 15 22.0294 15 27C15 31.9706 19.0294 36 24 36C28.9706 36 33 31.9706 33 27C33 22.0294 28.9706 18 24 18Z" fill="#BFD3FF"/>
<circle cx="24" cy="27" r="9.25" stroke="white" stroke-width="2.5"/>
</svg>
