<svg width="32" height="40" viewBox="0 0 32 40" fill="none" xmlns="http://www.w3.org/2000/svg">
<path d="M2.83607 0.740247C2.54299 0.721874 2.24946 0.768265 1.97633 0.876126C1.7032 0.983986 1.45718 1.15067 1.25573 1.36433C1.05428 1.578 0.902358 1.8334 0.810749 2.1124C0.719139 2.3914 0.690092 2.68715 0.725672 2.97865L3.74847 35.4134C3.94167 36.9887 5.80327 37.7226 7.01887 36.7026L13.3977 31.5299L16.2577 36.4838C17.9025 39.3326 20.5121 40.0326 23.3609 38.3878C26.2097 36.743 26.9089 34.1326 25.2641 31.2838L22.4141 26.3478L29.9725 23.4502C31.4637 22.9074 31.7593 20.9278 30.4925 19.973L3.91367 1.13785C3.60096 0.902727 3.22656 0.764488 2.83607 0.740247Z" fill="#FF0000"/>
</svg>
