<svg width="24" height="24" viewBox="0 0 24 24" fill="none" xmlns="http://www.w3.org/2000/svg">
<path d="M18.7243 19.7833C16.8579 21.4005 14.4702 22.2892 12.0006 22.2858C6.31976 22.2858 1.71484 17.6809 1.71484 12.0001C1.71484 6.31927 6.31976 1.71436 12.0006 1.71436C17.6814 1.71436 22.2863 6.31927 22.2863 12.0001C22.2863 14.1971 21.5971 16.2337 20.4246 17.9041L17.1434 12.0001H20.2291C20.229 10.1036 19.5737 8.26539 18.3743 6.79641C17.1748 5.32743 15.5048 4.31787 13.6466 3.93849C11.7885 3.55912 9.85633 3.83323 8.17703 4.71446C6.49773 5.59568 5.17436 7.02992 4.43081 8.77455C3.68726 10.5192 3.56916 12.4671 4.09649 14.2888C4.62383 16.1105 5.76422 17.6941 7.32476 18.7717C8.88529 19.8494 10.7702 20.3549 12.6605 20.2028C14.5509 20.0507 16.3307 19.2503 17.6988 17.937L18.7243 19.7833Z" fill="#66D1FF"/>
</svg>
