<svg width="20" height="20" viewBox="0 0 20 20" fill="none" xmlns="http://www.w3.org/2000/svg">
<path d="M14.6266 13.5128L18 16.8855L16.8855 18L13.5128 14.6266C12.2579 15.6325 10.6971 16.1797 9.08871 16.1774C5.17574 16.1774 2 13.0017 2 9.08871C2 5.17574 5.17574 2 9.08871 2C13.0017 2 16.1774 5.17574 16.1774 9.08871C16.1797 10.6971 15.6325 12.2579 14.6266 13.5128ZM13.0466 12.9284C14.0462 11.9005 14.6044 10.5225 14.6021 9.08871C14.6021 6.04214 12.1345 3.57527 9.08871 3.57527C6.04214 3.57527 3.57527 6.04214 3.57527 9.08871C3.57527 12.1345 6.04214 14.6021 9.08871 14.6021C10.5225 14.6044 11.9005 14.0462 12.9284 13.0466L13.0466 12.9284Z" fill="#4B5160"/>
</svg>
