<svg width="20" height="20" viewBox="0 0 20 20" fill="none" xmlns="http://www.w3.org/2000/svg">
<path d="M17.2 2.7998C17.4122 2.7998 17.6157 2.88409 17.7657 3.03412C17.9157 3.18415 18 3.38763 18 3.5998V16.3998C18 16.612 17.9157 16.8155 17.7657 16.9655C17.6157 17.1155 17.4122 17.1998 17.2 17.1998H2.8C2.58783 17.1998 2.38434 17.1155 2.23431 16.9655C2.08429 16.8155 2 16.612 2 16.3998V3.5998C2 3.38763 2.08429 3.18415 2.23431 3.03412C2.38434 2.88409 2.58783 2.7998 2.8 2.7998H17.2ZM16.4 4.3998H3.6V15.5998H16.4V4.3998ZM14.8 12.3998V13.9998H5.2V12.3998H14.8Z" fill="#5F6470"/>
</svg>
