<svg width="22" height="23" viewBox="0 0 22 23" fill="none" xmlns="http://www.w3.org/2000/svg">
<path d="M9.81688 16.3488C8.412 16.2757 7.22663 15.7342 6.26078 14.7244C5.29493 13.7147 4.812 12.5 4.812 11.0805C4.812 9.61712 5.32419 8.37322 6.34859 7.34883C7.37298 6.32444 8.61688 5.81224 10.0803 5.81224C11.4998 5.81224 12.7144 6.29517 13.7242 7.26102C14.734 8.22688 15.2754 9.41224 15.3486 10.8171L13.5047 10.2683C13.3144 9.4781 12.9047 8.83054 12.2754 8.32566C11.6461 7.82078 10.9144 7.56834 10.0803 7.56834C9.11444 7.56834 8.28761 7.91224 7.5998 8.60005C6.912 9.28785 6.5681 10.1147 6.5681 11.0805C6.5681 11.9147 6.82054 12.6464 7.32541 13.2757C7.83029 13.9049 8.47785 14.3147 9.2681 14.5049L9.81688 16.3488ZM10.8705 19.8171C10.7388 19.8464 10.6071 19.861 10.4754 19.861H10.0803C8.86566 19.861 7.7242 19.6305 6.6559 19.1696C5.58761 18.7086 4.65834 18.083 3.8681 17.2927C3.07785 16.5025 2.45224 15.5732 1.99127 14.5049C1.53029 13.4366 1.2998 12.2952 1.2998 11.0805C1.2998 9.8659 1.53029 8.72444 1.99127 7.65615C2.45224 6.58785 3.07785 5.65859 3.8681 4.86834C4.65834 4.0781 5.58761 3.45249 6.6559 2.99151C7.7242 2.53054 8.86566 2.30005 10.0803 2.30005C11.2949 2.30005 12.4364 2.53054 13.5047 2.99151C14.573 3.45249 15.5022 4.0781 16.2925 4.86834C17.0827 5.65859 17.7083 6.58785 18.1693 7.65615C18.6303 8.72444 18.8608 9.8659 18.8608 11.0805V11.4757C18.8608 11.6074 18.8461 11.7391 18.8169 11.8708L17.1047 11.344V11.0805C17.1047 9.11956 16.4242 7.45859 15.0632 6.09761C13.7022 4.73663 12.0413 4.05615 10.0803 4.05615C8.11932 4.05615 6.45834 4.73663 5.09737 6.09761C3.73639 7.45859 3.0559 9.11956 3.0559 11.0805C3.0559 13.0415 3.73639 14.7025 5.09737 16.0635C6.45834 17.4244 8.11932 18.1049 10.0803 18.1049H10.3437L10.8705 19.8171ZM17.5657 20.3L13.812 16.5464L12.7144 19.861L10.0803 11.0805L18.8608 13.7147L15.5461 14.8122L19.2998 18.5659L17.5657 20.3Z" fill="#4B5160"/>
</svg>
