<svg width="18" height="18" viewBox="0 0 18 18" fill="none" xmlns="http://www.w3.org/2000/svg">
<path d="M9 0C13.9706 0 18 4.02944 18 9C18 13.9706 13.9706 18 9 18C4.02944 18 0 13.9706 0 9C0 4.02944 4.02944 0 9 0ZM6.53561 5.75293C6.31638 5.60106 6.01328 5.62276 5.81802 5.81802L5.75293 5.89592C5.60106 6.11515 5.62276 6.41825 5.81802 6.61351L8.2045 9L5.81802 11.3865L5.75293 11.4644C5.60106 11.6836 5.62276 11.9867 5.81802 12.182L5.89592 12.2471C6.11515 12.3989 6.41825 12.3772 6.61351 12.182L9 9.7955L11.3865 12.182L11.4644 12.2471C11.6836 12.3989 11.9867 12.3772 12.182 12.182L12.2471 12.1041C12.3989 11.8848 12.3772 11.5817 12.182 11.3865L9.7955 9L12.182 6.61351L12.2471 6.53561C12.3989 6.31638 12.3772 6.01328 12.182 5.81802L12.1041 5.75293C11.8848 5.60106 11.5817 5.62276 11.3865 5.81802L9 8.2045L6.61351 5.81802L6.53561 5.75293Z" fill="#AAAFBA"/>
</svg>
