<svg width="40" height="40" viewBox="0 0 40 40" fill="none" xmlns="http://www.w3.org/2000/svg">
<path d="M32.4883 19.793C32.2085 25.8898 27.2087 30.9249 21.02 31.4044C19.2718 31.5072 17.5935 31.3017 15.9851 30.8221C15.181 30.5481 12.0691 32.0552 10.251 32.9458C9.83143 33.1513 9.27201 32.7402 9.48179 32.2607C10.1461 30.5481 11.0552 27.8422 10.6356 27.3284C8.50279 24.965 7.31401 21.7796 7.5238 18.2859C7.97833 12.2233 13.188 7.29096 19.4116 7.01694C26.7541 6.64017 32.8029 12.6 32.4883 19.793Z" fill="#7580F1"/>
<ellipse cx="20.0054" cy="23.4736" rx="1.10695" ry="1.10695" fill="white"/>
<path d="M20.8658 21.3107H19.0082C19.013 20.8736 19.047 20.4972 19.1101 20.1815C19.1781 19.861 19.2923 19.572 19.4525 19.3146C19.6177 19.0572 19.8362 18.8022 20.1082 18.5497C20.3365 18.3457 20.5356 18.1514 20.7056 17.9668C20.8756 17.7823 21.0091 17.5929 21.1062 17.3986C21.2034 17.1995 21.2519 16.9785 21.2519 16.7357C21.2519 16.454 21.2082 16.2209 21.1208 16.0363C21.0383 15.8469 20.912 15.7036 20.742 15.6065C20.5769 15.5094 20.368 15.4608 20.1155 15.4608C19.9066 15.4608 19.7124 15.5069 19.5327 15.5992C19.353 15.6866 19.2048 15.8226 19.0883 16.0072C18.9766 16.1917 18.9183 16.4346 18.9134 16.7357H16.8008C16.8154 16.0703 16.9683 15.5215 17.2597 15.0893C17.556 14.6522 17.9518 14.3292 18.4472 14.1203C18.9426 13.9067 19.4987 13.7998 20.1155 13.7998C20.7954 13.7998 21.3782 13.9115 21.8639 14.1349C22.3496 14.3535 22.7211 14.6764 22.9785 15.1038C23.2359 15.5264 23.3646 16.0412 23.3646 16.6483C23.3646 17.0708 23.282 17.4472 23.1169 17.7774C22.9518 18.1028 22.7357 18.4064 22.4685 18.6881C22.2014 18.9698 21.9076 19.2612 21.5871 19.5623C21.3102 19.81 21.1208 20.0698 21.0188 20.3418C20.9217 20.6137 20.8707 20.9367 20.8658 21.3107Z" fill="white"/>
</svg>
