<svg width="24" height="24" viewBox="0 0 24 24" fill="none" xmlns="http://www.w3.org/2000/svg">
<path d="M11.2227 19H5.77734C5.57122 18.9999 5.3733 18.9182 5.22754 18.7725C5.08178 18.6267 5.00011 18.4288 5 18.2227V12.7773H11.2227V19ZM19 12.7773V18.2227C18.9999 18.4288 18.9182 18.6267 18.7725 18.7725C18.6267 18.9182 18.4288 18.9999 18.2227 19H12.7773V12.7773H19ZM11.2227 11.2227H5V5.77734C5.00011 5.57122 5.08178 5.3733 5.22754 5.22754C5.3733 5.08178 5.57122 5.00011 5.77734 5H11.2227V11.2227ZM18.2227 5C18.4288 5.00011 18.6267 5.08178 18.7725 5.22754C18.9182 5.3733 18.9999 5.57122 19 5.77734V11.2227H12.7773V5H18.2227Z" fill="#5F6470"/>
</svg>
