<svg width="56" height="56" viewBox="0 0 56 56" fill="none" xmlns="http://www.w3.org/2000/svg">
<path d="M33.4502 18.3157H38.25C38.5682 18.3157 38.8736 18.4429 39.0986 18.6702C39.3237 18.8975 39.4502 19.2061 39.4502 19.5276V29.8C35.0622 29.8 31.5008 33.3328 31.4521 37.7092H16.6504C16.3321 37.7092 16.0268 37.5811 15.8018 37.3538C15.5769 37.1265 15.4503 36.8186 15.4502 36.4973V19.5276C15.4502 19.2061 15.5767 18.8975 15.8018 18.6702C16.0268 18.4429 16.3322 18.3157 16.6504 18.3157H21.4502L23.8506 15.8909H31.0498L33.4502 18.3157Z" fill="white"/>
<rect x="34.9502" y="37.05" width="9" height="1.5" rx="0.75" fill="white"/>
<rect x="40.2002" y="33.3" width="9" height="1.5" rx="0.75" transform="rotate(90 40.2002 33.3)" fill="white"/>
<circle cx="27.4502" cy="27.8" r="4.875" fill="white" stroke="#5A5A5F" stroke-width="2.25"/>
</svg>
