<svg width="48" height="48" viewBox="0 0 48 48" fill="none" xmlns="http://www.w3.org/2000/svg">
<path d="M27.3487 9.21959C27.3487 9.22026 27.348 9.22067 27.3474 9.22031L22.0739 5.8844C21.8718 5.75656 21.6887 5.60084 21.4947 5.46096C21.0826 5.16376 20.5839 5 20.0688 5H5.44095C4.0936 5 3 6.09168 3 7.43665V39.5633C3 40.9083 4.0936 42 5.44095 42H42.5591C43.9064 42 45 40.9083 45 39.5633V12.3463C45 11.0014 43.9064 9.90968 42.5591 9.90968H29.0499C28.4144 9.90968 27.8039 9.66048 27.3502 9.21898C27.3496 9.21845 27.3487 9.21883 27.3487 9.21959Z" fill="#A1A6BE"/>
<path d="M42.509 15H5.49098C4.11525 15 3 16.1218 3 17.5055V39.4945C3 40.8782 4.11525 42 5.49098 42H42.509C43.8848 42 45 40.8782 45 39.4945V17.5055C45 16.1218 43.8848 15 42.509 15Z" fill="#CDCFDB"/>
</svg>
