<svg width="40" height="40" viewBox="0 0 40 40" fill="none" xmlns="http://www.w3.org/2000/svg">
<path d="M31.08 7C31.8463 7 32.4672 7.62226 32.4672 8.38855V21.4616C31.5689 21.1444 30.6231 20.9826 29.6705 20.9834V9.79668H7.29672L7.29812 29.3735L20.2917 16.3787C20.5321 16.1374 20.8524 15.9924 21.1924 15.9707C21.5323 15.9491 21.8684 16.0524 22.1375 16.2612L22.2676 16.3801L27.2261 21.3442C26.1419 21.6746 25.1358 22.2211 24.2685 22.9508C23.4013 23.6805 22.6907 24.5784 22.1798 25.5901C21.6689 26.6019 21.3682 27.7066 21.2958 28.8377C21.2234 29.9688 21.3808 31.1029 21.7586 32.1715L5.88717 32.1701C5.51914 32.1698 5.16631 32.0233 4.90621 31.7629C4.6461 31.5026 4.5 31.1496 4.5 30.7816V8.38855C4.50256 8.02132 4.64949 7.66983 4.90904 7.41002C5.16859 7.15021 5.51994 7.00293 5.88717 7H31.08ZM12.8902 12.5934C13.6319 12.5934 14.3433 12.888 14.8677 13.4125C15.3922 13.937 15.6869 14.6483 15.6869 15.39C15.6869 16.1318 15.3922 16.8431 14.8677 17.3676C14.3433 17.8921 13.6319 18.1867 12.8902 18.1867C12.1484 18.1867 11.4371 17.8921 10.9126 17.3676C10.3881 16.8431 10.0934 16.1318 10.0934 15.39C10.0934 14.6483 10.3881 13.937 10.9126 13.4125C11.4371 12.888 12.1484 12.5934 12.8902 12.5934Z" fill="#C9CCD3"/>
<path d="M32.5674 29.3741L35.5338 26.4077L33.5562 24.4302L30.5898 27.3965L27.6235 24.4302L25.6459 26.4077L28.6123 29.3741L25.6459 32.3404L27.6235 34.318L30.5898 31.3516L33.5562 34.318L35.5338 32.3404L32.5674 29.3741Z" fill="#C9CCD3"/>
</svg>
