<svg width="40" height="40" viewBox="0 0 40 40" fill="none" xmlns="http://www.w3.org/2000/svg">
<path d="M20.2453 19.5779L23.1622 16.6611L21.2176 14.7166L18.3008 17.6334L15.3839 14.7166L13.4394 16.6611L16.3562 19.5779L13.4394 22.4947L15.3839 24.4393L18.3008 21.5225L21.2176 24.4393L23.1622 22.4947L20.2453 19.5779Z" fill="#C9CCD3"/>
<path d="M29.2531 28.0257L36 34.771L33.771 37L27.0257 30.2531C24.5159 32.2651 21.3941 33.3594 18.1774 33.3548C10.3515 33.3548 4 27.0033 4 19.1774C4 11.3515 10.3515 5 18.1774 5C26.0033 5 32.3548 11.3515 32.3548 19.1774C32.3594 22.3941 31.2651 25.5159 29.2531 28.0257ZM26.0931 26.8568C28.0923 24.8009 29.2088 22.0451 29.2043 19.1774C29.2043 13.0843 24.269 8.15054 18.1774 8.15054C12.0843 8.15054 7.15054 13.0843 7.15054 19.1774C7.15054 25.269 12.0843 30.2043 18.1774 30.2043C21.0451 30.2088 23.8009 29.0923 25.8568 27.0931L26.0931 26.8568Z" fill="#C9CCD3"/>
</svg>
