<svg width="16" height="16" viewBox="0 0 16 16" fill="none" xmlns="http://www.w3.org/2000/svg">
<path d="M8 1C8.18565 1 8.3637 1.07375 8.49497 1.20503C8.62625 1.3363 8.7 1.51435 8.7 1.7V3.8C8.7 3.98565 8.62625 4.1637 8.49497 4.29497C8.3637 4.42625 8.18565 4.5 8 4.5C7.81435 4.5 7.6363 4.42625 7.50503 4.29497C7.37375 4.1637 7.3 3.98565 7.3 3.8V1.7C7.3 1.51435 7.37375 1.3363 7.50503 1.20503C7.6363 1.07375 7.81435 1 8 1ZM8 11.5C8.18565 11.5 8.3637 11.5737 8.49497 11.705C8.62625 11.8363 8.7 12.0143 8.7 12.2V14.3C8.7 14.4857 8.62625 14.6637 8.49497 14.795C8.3637 14.9263 8.18565 15 8 15C7.81435 15 7.6363 14.9263 7.50503 14.795C7.37375 14.6637 7.3 14.4857 7.3 14.3V12.2C7.3 12.0143 7.37375 11.8363 7.50503 11.705C7.6363 11.5737 7.81435 11.5 8 11.5ZM15 8C15 8.18565 14.9263 8.3637 14.795 8.49497C14.6637 8.62625 14.4857 8.7 14.3 8.7H12.2C12.0143 8.7 11.8363 8.62625 11.705 8.49497C11.5737 8.3637 11.5 8.18565 11.5 8C11.5 7.81435 11.5737 7.6363 11.705 7.50503C11.8363 7.37375 12.0143 7.3 12.2 7.3H14.3C14.4857 7.3 14.6637 7.37375 14.795 7.50503C14.9263 7.6363 15 7.81435 15 8ZM4.5 8C4.5 8.18565 4.42625 8.3637 4.29497 8.49497C4.1637 8.62625 3.98565 8.7 3.8 8.7H1.7C1.51435 8.7 1.3363 8.62625 1.20503 8.49497C1.07375 8.3637 1 8.18565 1 8C1 7.81435 1.07375 7.6363 1.20503 7.50503C1.3363 7.37375 1.51435 7.3 1.7 7.3H3.8C3.98565 7.3 4.1637 7.37375 4.29497 7.50503C4.42625 7.6363 4.5 7.81435 4.5 8ZM12.9497 12.9497C12.8184 13.0809 12.6404 13.1547 12.4548 13.1547C12.2692 13.1547 12.0912 13.0809 11.9599 12.9497L10.4752 11.465C10.3477 11.333 10.2771 11.1562 10.2787 10.9726C10.2803 10.7891 10.3539 10.6135 10.4837 10.4837C10.6135 10.3539 10.7891 10.2803 10.9726 10.2787C11.1562 10.2771 11.333 10.3477 11.465 10.4752L12.9497 11.9592C13.0148 12.0242 13.0664 12.1014 13.1016 12.1864C13.1369 12.2714 13.155 12.3625 13.155 12.4545C13.155 12.5464 13.1369 12.6375 13.1016 12.7225C13.0664 12.8075 13.0148 12.8847 12.9497 12.9497ZM5.5248 5.5248C5.39353 5.65603 5.21551 5.72975 5.0299 5.72975C4.84429 5.72975 4.66627 5.65603 4.535 5.5248L3.051 4.0408C2.91965 3.90954 2.84582 3.73149 2.84576 3.5458C2.84569 3.36011 2.91939 3.182 3.05065 3.05065C3.18191 2.9193 3.35996 2.84547 3.54565 2.84541C3.73134 2.84534 3.90945 2.91904 4.0408 3.0503L5.5248 4.535C5.65603 4.66627 5.72975 4.84429 5.72975 5.0299C5.72975 5.21551 5.65603 5.39353 5.5248 5.5248ZM3.051 12.9497C2.91977 12.8184 2.84605 12.6404 2.84605 12.4548C2.84605 12.2692 2.91977 12.0912 3.051 11.9599L4.5357 10.4752C4.60027 10.4083 4.67751 10.355 4.76292 10.3183C4.84832 10.2816 4.94017 10.2623 5.03312 10.2615C5.12606 10.2607 5.21824 10.2784 5.30427 10.3136C5.3903 10.3488 5.46845 10.4008 5.53418 10.4665C5.5999 10.5322 5.65188 10.6104 5.68708 10.6964C5.72227 10.7825 5.73998 10.8746 5.73918 10.9676C5.73837 11.0605 5.71906 11.1524 5.68237 11.2378C5.64568 11.3232 5.59236 11.4004 5.5255 11.465L4.0415 12.9497C3.97649 13.0148 3.89929 13.0664 3.81431 13.1016C3.72933 13.1369 3.63824 13.155 3.54625 13.155C3.45426 13.155 3.36317 13.1369 3.27819 13.1016C3.19321 13.0664 3.11601 13.0148 3.051 12.9497ZM10.4752 5.5248C10.344 5.39353 10.2702 5.21551 10.2702 5.0299C10.2702 4.84429 10.344 4.66627 10.4752 4.535L11.9592 3.0503C12.0905 2.91895 12.2685 2.84512 12.4542 2.84506C12.6399 2.84499 12.818 2.91869 12.9493 3.04995C13.0807 3.18121 13.1545 3.35926 13.1546 3.54495C13.1547 3.73064 13.081 3.90875 12.9497 4.0401L11.465 5.5248C11.3337 5.65603 11.1557 5.72975 10.9701 5.72975C10.7845 5.72975 10.6065 5.65603 10.4752 5.5248Z" fill="#3D73E6"/>
</svg>
